<?xml version="1.0" encoding="UTF-8" standalone="no"?>
<svg
   xmlns:dc="http://purl.org/dc/elements/1.1/"
   xmlns:cc="http://creativecommons.org/ns#"
   xmlns:rdf="http://www.w3.org/1999/02/22-rdf-syntax-ns#"
   xmlns:svg="http://www.w3.org/2000/svg"
   xmlns="http://www.w3.org/2000/svg"
   xmlns:sodipodi="http://sodipodi.sourceforge.net/DTD/sodipodi-0.dtd"
   xmlns:inkscape="http://www.inkscape.org/namespaces/inkscape"
   inkscape:version="1.0 (4035a4f, 2020-05-01)"
   sodipodi:docname="facebook.svg"
   id="svg844"
   version="1.1"
   width="36"
   height="36">
  <metadata
     id="metadata848">
    <rdf:RDF>
      <cc:Work
         rdf:about="">
        <dc:format>image/svg+xml</dc:format>
        <dc:type
           rdf:resource="http://purl.org/dc/dcmitype/StillImage" />
        <dc:title></dc:title>
      </cc:Work>
    </rdf:RDF>
  </metadata>
  <sodipodi:namedview
     inkscape:current-layer="svg844"
     inkscape:window-maximized="0"
     inkscape:window-y="63"
     inkscape:window-x="1536"
     inkscape:cy="20"
     inkscape:cx="20"
     inkscape:zoom="17.8"
     fit-margin-bottom="0"
     fit-margin-right="0"
     fit-margin-left="0"
     fit-margin-top="0"
     showgrid="false"
     id="namedview846"
     inkscape:window-height="1035"
     inkscape:window-width="1920"
     inkscape:pageshadow="2"
     inkscape:pageopacity="0"
     guidetolerance="10"
     gridtolerance="10"
     objecttolerance="10"
     borderopacity="1"
     bordercolor="#666666"
     pagecolor="#ffffff" />
  <defs
     id="defs838">
    <linearGradient
       gradientUnits="userSpaceOnUse"
       gradientTransform="scale(1.0027894,0.99721835)"
       id="jsc_s_2"
       y2="0"
       y1="34.850944"
       x2="17.94993"
       x1="17.94993">
      <stop
         id="stop833"
         stop-color="#0062E0"
         offset="0%" />
      <stop
         id="stop835"
         stop-color="#19AFFF"
         offset="100%" />
    </linearGradient>
  </defs>
  <path
     style="fill:url(#jsc_s_2)"
     id="path840"
     fill="url(#jsc_s_2)"
     d="M 15,35.8 C 6.5,34.3 0,26.9 0,18 0,8.1 8.1,0 18,0 27.9,0 36,8.1 36,18 36,26.9 29.5,34.3 21,35.8 L 20,35 h -4 z" />
  <path
     id="path842"
     fill="#ffffff"
     d="m 25,23 0.8,-5 H 21 V 14.5 C 21,13.1 21.5,12 23.7,12 H 26 V 7.4 C 24.7,7.2 23.3,7 22,7 17.9,7 15,9.5 15,14 v 4 h -4.5 v 5 H 15 v 12.7 c 1,0.2 2,0.3 3,0.3 1,0 2,-0.1 3,-0.3 V 23 Z"
     class="p361ku9c" />
</svg>
