<?xml version="1.0" encoding="utf-8"?>
<!-- Generator: Adobe Illustrator 24.3.0, SVG Export Plug-In . SVG Version: 6.00 Build 0)  -->
<svg version="1.1" id="Layer_1" xmlns="http://www.w3.org/2000/svg" xmlns:xlink="http://www.w3.org/1999/xlink" x="0px" y="0px"
	 viewBox="0 0 343.51 62.4" style="enable-background:new 0 0 343.51 62.4;" xml:space="preserve">
<style type="text/css">
	.st0{fill:#B5B5B6;}
	.st1{fill:#757576;}
</style>
<g>
	<path class="st0" d="M60.1,22.78L63,8l4.72,10.68L72.6,8l2.6,14.78h-2.13l-1.33-8.3l-4.07,8.93l-3.95-8.94l-1.48,8.31H60.1z"/>
	<path class="st0" d="M80.19,9.03v13.75h-2.07V9.03H80.19z"/>
	<path class="st0" d="M87.29,10.98v11.8h-2.07v-11.8h-3.16V9.03h8.39v1.95H87.29z"/>
	<path class="st0" d="M108.08,9.77v2.46c-1.2-1-2.44-1.5-3.72-1.5c-1.41,0-2.6,0.51-3.57,1.52c-0.97,1.01-1.46,2.24-1.46,3.7
		c0,1.44,0.49,2.66,1.46,3.65s2.17,1.49,3.58,1.49c0.73,0,1.35-0.12,1.86-0.36c0.29-0.12,0.58-0.28,0.89-0.48
		c0.31-0.2,0.63-0.45,0.97-0.73v2.5c-1.19,0.67-2.43,1.01-3.74,1.01c-1.96,0-3.64-0.69-5.03-2.06c-1.38-1.38-2.07-3.05-2.07-5
		c0-1.75,0.58-3.31,1.74-4.68c1.42-1.68,3.27-2.52,5.53-2.52C105.73,8.76,106.93,9.1,108.08,9.77z"/>
	<path class="st0" d="M118.21,18.92H112c0.05,0.71,0.28,1.28,0.69,1.7c0.41,0.42,0.94,0.62,1.58,0.62c0.5,0,0.91-0.12,1.24-0.36
		c0.32-0.24,0.69-0.68,1.1-1.32l1.69,0.94c-0.26,0.45-0.54,0.83-0.83,1.14c-0.29,0.32-0.6,0.58-0.94,0.78
		c-0.33,0.21-0.69,0.35-1.08,0.45c-0.39,0.09-0.8,0.14-1.26,0.14c-1.29,0-2.33-0.42-3.12-1.25c-0.78-0.84-1.18-1.95-1.18-3.33
		c0-1.37,0.38-2.48,1.14-3.33c0.77-0.84,1.78-1.26,3.04-1.26c1.28,0,2.29,0.41,3.03,1.22c0.74,0.81,1.1,1.93,1.1,3.36L118.21,18.92z
		 M116.15,17.28c-0.28-1.07-0.95-1.6-2.02-1.6c-0.24,0-0.47,0.04-0.69,0.11c-0.21,0.07-0.41,0.18-0.58,0.32
		c-0.18,0.14-0.33,0.31-0.45,0.5c-0.12,0.2-0.22,0.42-0.29,0.67H116.15z"/>
	<path class="st0" d="M120.4,14.11h2.01v0.8c0.7-0.69,1.49-1.04,2.37-1.04c1.01,0,1.8,0.32,2.36,0.95c0.49,0.54,0.73,1.42,0.73,2.64
		v5.32h-2.01v-4.84c0-0.85-0.12-1.45-0.36-1.77c-0.23-0.33-0.65-0.5-1.26-0.5c-0.67,0-1.14,0.22-1.42,0.66
		c-0.27,0.43-0.41,1.19-0.41,2.27v4.18h-2.01V14.11z"/>
	<path class="st0" d="M132.47,15.98v6.8h-2v-6.8h-0.85v-1.87h0.85v-3.18h2v3.18h1.56v1.87H132.47z"/>
	<path class="st0" d="M143.45,18.92h-6.21c0.05,0.71,0.28,1.28,0.69,1.7c0.41,0.42,0.94,0.62,1.58,0.62c0.5,0,0.91-0.12,1.24-0.36
		c0.32-0.24,0.69-0.68,1.1-1.32l1.69,0.94c-0.26,0.45-0.54,0.83-0.83,1.14c-0.29,0.32-0.6,0.58-0.94,0.78
		c-0.33,0.21-0.69,0.35-1.08,0.45c-0.39,0.09-0.8,0.14-1.26,0.14c-1.29,0-2.33-0.42-3.12-1.25c-0.78-0.84-1.18-1.95-1.18-3.33
		c0-1.37,0.38-2.48,1.14-3.33c0.77-0.84,1.78-1.26,3.04-1.26c1.28,0,2.29,0.41,3.03,1.22c0.74,0.81,1.1,1.93,1.1,3.36L143.45,18.92z
		 M141.39,17.28c-0.28-1.07-0.95-1.6-2.02-1.6c-0.24,0-0.47,0.04-0.69,0.11c-0.21,0.07-0.41,0.18-0.58,0.32
		c-0.18,0.14-0.33,0.31-0.45,0.5c-0.12,0.2-0.22,0.42-0.29,0.67H141.39z"/>
	<path class="st0" d="M145.64,14.11h2v0.77c0.37-0.39,0.69-0.65,0.98-0.79c0.29-0.15,0.64-0.22,1.03-0.22
		c0.53,0,1.08,0.17,1.66,0.52l-0.92,1.83c-0.38-0.27-0.75-0.41-1.11-0.41c-1.09,0-1.64,0.83-1.64,2.48v4.5h-2V14.11z"/>
	<path class="st0" d="M160.16,15.98v6.8h-2.01v-6.8h-0.71v-1.87h0.71v-3.35c0-1.09,0.19-1.86,0.57-2.31C159.24,7.81,160,7.5,161,7.5
		c0.36,0,0.8,0.1,1.34,0.31v2.05l-0.2-0.11c-0.43-0.22-0.79-0.33-1.07-0.33c-0.36,0-0.6,0.13-0.72,0.38
		c-0.12,0.25-0.19,0.73-0.19,1.44v2.86h2.18v1.87H160.16z"/>
	<path class="st0" d="M163.31,18.38c0-1.25,0.45-2.32,1.34-3.2c0.9-0.88,1.99-1.32,3.28-1.32c1.29,0,2.39,0.44,3.29,1.33
		c0.89,0.88,1.34,1.97,1.34,3.26c0,1.3-0.45,2.39-1.34,3.27c-0.9,0.87-2.01,1.31-3.32,1.31c-1.3,0-2.39-0.45-3.27-1.34
		C163.75,20.81,163.31,19.71,163.31,18.38z M165.36,18.42c0,0.87,0.23,1.55,0.69,2.06c0.48,0.51,1.1,0.77,1.88,0.77
		c0.78,0,1.41-0.25,1.88-0.76c0.47-0.5,0.7-1.18,0.7-2.02s-0.23-1.52-0.7-2.02c-0.48-0.51-1.1-0.77-1.88-0.77
		c-0.77,0-1.39,0.26-1.86,0.77C165.6,16.95,165.36,17.61,165.36,18.42z"/>
	<path class="st0" d="M174.68,14.11h2v0.77c0.37-0.39,0.69-0.65,0.98-0.79c0.29-0.15,0.64-0.22,1.03-0.22
		c0.53,0,1.08,0.17,1.66,0.52l-0.92,1.83c-0.38-0.27-0.75-0.41-1.11-0.41c-1.09,0-1.64,0.83-1.64,2.48v4.5h-2V14.11z"/>
</g>
<path d="M43.54,43.47l-3.47,2.81c-3.2,2.44-7.8,3.9-11.7,3.9c-11.91,0-21.52-9.89-21.52-21.73c0-11.91,9.47-21.73,21.52-21.73
	c12.05,0,21.52,9.75,21.52,21.73c0,3.79-0.85,7.21-2.6,10.29l4.42,3.89c0.19-0.29,0.37-0.58,0.54-0.88
	c2.29-3.89,3.48-8.18,3.48-13.1c0-15.04-12.19-27.37-27.37-27.37C13.4,1.29,1,13.48,1,28.52c0,15.11,12.4,27.09,27.37,27.09
	c5.29,0,11.49-1.88,15.81-5.15l10.57,10.11h7.45l-9.2-8.76L43.54,43.47z"/>
<g>
	<path d="M61.95,36.07v9.2c0,2.66,1.05,3.98,3.15,3.98c2.1,0,3.14-1.33,3.14-3.98v-9.2h3.7v9.29c0,1.28-0.16,2.39-0.48,3.33
		c-0.31,0.83-0.84,1.59-1.6,2.26c-1.25,1.09-2.84,1.63-4.77,1.63c-1.92,0-3.51-0.54-4.76-1.63c-0.77-0.67-1.31-1.42-1.63-2.26
		c-0.31-0.75-0.46-1.85-0.46-3.33v-9.29H61.95z"/>
	<path d="M88.07,36.07h3.72V52.1h-3.72v-1.68c-1.53,1.43-3.17,2.14-4.92,2.14c-2.22,0-4.05-0.8-5.5-2.4
		c-1.44-1.63-2.16-3.68-2.16-6.12c0-2.4,0.72-4.41,2.16-6.01s3.24-2.4,5.4-2.4c1.87,0,3.54,0.77,5.02,2.3V36.07z M79.28,44.03
		c0,1.54,0.41,2.79,1.23,3.75c0.84,0.98,1.91,1.47,3.19,1.47c1.37,0,2.48-0.47,3.33-1.42c0.84-0.98,1.27-2.22,1.27-3.72
		s-0.42-2.74-1.27-3.72c-0.85-0.95-1.94-1.43-3.29-1.43c-1.27,0-2.34,0.48-3.19,1.45C79.7,41.39,79.28,42.6,79.28,44.03z"/>
	<path d="M95.22,36.07h3.72v1.48c1.29-1.28,2.75-1.93,4.38-1.93c1.87,0,3.32,0.59,4.36,1.76c0.9,1,1.35,2.63,1.35,4.89v9.83h-3.72
		v-8.96c0-1.58-0.22-2.67-0.66-3.28c-0.43-0.61-1.21-0.92-2.34-0.92c-1.23,0-2.1,0.41-2.62,1.22c-0.5,0.8-0.76,2.2-0.76,4.2v7.74
		h-3.72V36.07z"/>
	<path d="M116.28,39.52V52.1h-3.7V39.52H111v-3.46h1.58v-5.88h3.7v5.88h2.88v3.46H116.28z"/>
	<path d="M125.62,36.07v9.2c0,2.66,1.05,3.98,3.15,3.98c2.1,0,3.14-1.33,3.14-3.98v-9.2h3.7v9.29c0,1.28-0.16,2.39-0.48,3.33
		c-0.31,0.83-0.84,1.59-1.6,2.26c-1.25,1.09-2.84,1.63-4.77,1.63c-1.92,0-3.51-0.54-4.76-1.63c-0.77-0.67-1.31-1.42-1.63-2.26
		c-0.31-0.75-0.46-1.85-0.46-3.33v-9.29H125.62z"/>
	<path d="M138.81,36.07h3.7v1.48c0.71-0.75,1.32-1.25,1.83-1.51c0.54-0.27,1.21-0.41,2.03-0.41c1.81,0,3.24,0.79,4.3,2.37
		c1.16-1.58,2.74-2.37,4.73-2.37c3.61,0,5.42,2.19,5.42,6.57v9.91h-3.72V43.2c0-1.54-0.19-2.62-0.56-3.26
		c-0.38-0.65-1.02-0.97-1.89-0.97c-1.02,0-1.76,0.38-2.23,1.15c-0.47,0.77-0.7,2-0.7,3.7v8.28h-3.72v-8.86
		c0-2.85-0.82-4.28-2.47-4.28c-1.04,0-1.8,0.39-2.28,1.17s-0.72,2.01-0.72,3.69v8.28h-3.7V36.07z"/>
</g>
<path d="M188.61,23.89c0,0,205.51-47.99,131.72-4.09C320.32,19.8,361.17-9.93,188.61,23.89z"/>
<g>
	<path class="st0" d="M178.83,30.29h-10.19v6.11h9.9V40h-9.9v8.5h10.19v3.61H164.8V26.68h14.03V30.29z"/>
	<path class="st0" d="M183.16,36.07h3.72v1.48c1.29-1.28,2.75-1.93,4.38-1.93c1.87,0,3.32,0.59,4.36,1.76c0.9,1,1.35,2.63,1.35,4.89
		v9.83h-3.72v-8.96c0-1.58-0.22-2.67-0.66-3.28c-0.43-0.61-1.21-0.92-2.34-0.92c-1.23,0-2.1,0.41-2.62,1.22
		c-0.5,0.8-0.76,2.2-0.76,4.2v7.74h-3.72V36.07z"/>
	<path class="st0" d="M217.16,51.72c0,0.76-0.02,1.42-0.07,2c-0.05,0.58-0.12,1.08-0.21,1.52c-0.26,1.21-0.78,2.24-1.55,3.11
		c-1.45,1.67-3.44,2.5-5.98,2.5c-2.14,0-3.9-0.58-5.29-1.73c-1.43-1.19-2.25-2.83-2.47-4.92h3.72c0.14,0.79,0.38,1.4,0.71,1.83
		c0.77,1,1.89,1.5,3.36,1.5c2.71,0,4.07-1.66,4.07-4.99v-2.24c-1.47,1.5-3.17,2.26-5.09,2.26c-2.18,0-3.97-0.79-5.37-2.37
		c-1.41-1.6-2.11-3.61-2.11-6.01c0-2.34,0.65-4.32,1.96-5.96c1.4-1.73,3.26-2.6,5.56-2.6c2.02,0,3.7,0.75,5.04,2.26v-1.81h3.7V51.72
		z M213.61,44.12c0-1.56-0.42-2.8-1.25-3.74c-0.85-0.96-1.93-1.43-3.24-1.43c-1.41,0-2.51,0.52-3.33,1.56
		c-0.74,0.93-1.1,2.14-1.1,3.62c0,1.46,0.37,2.66,1.1,3.59c0.8,1.02,1.91,1.53,3.33,1.53s2.54-0.52,3.36-1.55
		C213.23,46.77,213.61,45.58,213.61,44.12z"/>
	<path class="st0" d="M221.28,29.4c0-0.65,0.24-1.21,0.71-1.68c0.47-0.47,1.04-0.71,1.7-0.71c0.67,0,1.24,0.24,1.71,0.71
		c0.47,0.46,0.71,1.03,0.71,1.7s-0.24,1.24-0.71,1.71c-0.46,0.47-1.03,0.71-1.7,0.71c-0.67,0-1.24-0.24-1.71-0.71
		C221.51,30.65,221.28,30.08,221.28,29.4z M225.54,36.07V52.1h-3.7V36.07H225.54z"/>
	<path class="st0" d="M230.24,36.07h3.72v1.48c1.29-1.28,2.75-1.93,4.38-1.93c1.87,0,3.32,0.59,4.36,1.76c0.9,1,1.35,2.63,1.35,4.89
		v9.83h-3.72v-8.96c0-1.58-0.22-2.67-0.66-3.28c-0.43-0.61-1.21-0.92-2.34-0.92c-1.23,0-2.1,0.41-2.62,1.22
		c-0.5,0.8-0.76,2.2-0.76,4.2v7.74h-3.72V36.07z"/>
	<path class="st0" d="M263.33,44.96h-11.49c0.1,1.32,0.53,2.37,1.28,3.14c0.76,0.77,1.73,1.15,2.91,1.15c0.92,0,1.68-0.22,2.29-0.66
		c0.59-0.44,1.27-1.25,2.02-2.44l3.13,1.75c-0.48,0.82-0.99,1.53-1.53,2.12c-0.54,0.59-1.11,1.07-1.73,1.45
		c-0.62,0.38-1.28,0.66-1.99,0.83s-1.49,0.26-2.32,0.26c-2.39,0-4.31-0.77-5.76-2.31c-1.45-1.55-2.17-3.6-2.17-6.16
		c0-2.54,0.7-4.59,2.11-6.16c1.42-1.55,3.29-2.32,5.63-2.32c2.36,0,4.23,0.75,5.6,2.26c1.36,1.49,2.04,3.56,2.04,6.21L263.33,44.96z
		 M259.53,41.93c-0.52-1.98-1.76-2.96-3.74-2.96c-0.45,0-0.87,0.07-1.27,0.21c-0.4,0.14-0.75,0.33-1.08,0.59
		c-0.32,0.26-0.6,0.57-0.83,0.93s-0.41,0.77-0.53,1.23H259.53z"/>
	<path class="st0" d="M281.98,44.96h-11.49c0.1,1.32,0.53,2.37,1.28,3.14c0.76,0.77,1.73,1.15,2.91,1.15c0.92,0,1.68-0.22,2.29-0.66
		c0.59-0.44,1.27-1.25,2.02-2.44l3.13,1.75c-0.48,0.82-0.99,1.53-1.53,2.12c-0.54,0.59-1.11,1.07-1.73,1.45
		c-0.62,0.38-1.28,0.66-1.99,0.83s-1.49,0.26-2.32,0.26c-2.39,0-4.31-0.77-5.76-2.31c-1.45-1.55-2.17-3.6-2.17-6.16
		c0-2.54,0.7-4.59,2.11-6.16c1.42-1.55,3.29-2.32,5.63-2.32c2.36,0,4.23,0.75,5.6,2.26c1.36,1.49,2.04,3.56,2.04,6.21L281.98,44.96z
		 M278.18,41.93c-0.52-1.98-1.76-2.96-3.74-2.96c-0.45,0-0.87,0.07-1.27,0.21c-0.4,0.14-0.75,0.33-1.08,0.59
		c-0.32,0.26-0.6,0.57-0.83,0.93s-0.41,0.77-0.53,1.23H278.18z"/>
	<path class="st0" d="M286.03,36.07h3.7v1.43c0.68-0.71,1.28-1.2,1.81-1.46c0.54-0.27,1.17-0.41,1.91-0.41c0.98,0,2,0.32,3.06,0.96
		l-1.7,3.39c-0.7-0.5-1.39-0.76-2.06-0.76c-2.02,0-3.03,1.53-3.03,4.58v8.31h-3.7V36.07z"/>
	<path class="st0" d="M298.6,29.4c0-0.65,0.24-1.21,0.71-1.68c0.47-0.47,1.04-0.71,1.7-0.71c0.67,0,1.24,0.24,1.71,0.71
		c0.47,0.46,0.71,1.03,0.71,1.7s-0.24,1.24-0.71,1.71c-0.46,0.47-1.03,0.71-1.7,0.71c-0.67,0-1.24-0.24-1.71-0.71
		C298.83,30.65,298.6,30.08,298.6,29.4z M302.86,36.07V52.1h-3.71V36.07H302.86z"/>
	<path class="st0" d="M307.55,36.07h3.72v1.48c1.3-1.28,2.76-1.93,4.38-1.93c1.87,0,3.32,0.59,4.36,1.76c0.9,1,1.35,2.63,1.35,4.89
		v9.83h-3.72v-8.96c0-1.58-0.22-2.67-0.66-3.28c-0.43-0.61-1.21-0.92-2.34-0.92c-1.23,0-2.1,0.41-2.62,1.22
		c-0.5,0.8-0.76,2.2-0.76,4.2v7.74h-3.72V36.07z"/>
	<path class="st0" d="M341.55,51.72c0,0.76-0.02,1.42-0.07,2c-0.05,0.58-0.12,1.08-0.21,1.52c-0.26,1.21-0.78,2.24-1.55,3.11
		c-1.45,1.67-3.44,2.5-5.98,2.5c-2.14,0-3.9-0.58-5.29-1.73c-1.43-1.19-2.25-2.83-2.47-4.92h3.72c0.14,0.79,0.38,1.4,0.71,1.83
		c0.77,1,1.89,1.5,3.36,1.5c2.71,0,4.07-1.66,4.07-4.99v-2.24c-1.47,1.5-3.17,2.26-5.09,2.26c-2.18,0-3.97-0.79-5.37-2.37
		c-1.41-1.6-2.11-3.61-2.11-6.01c0-2.34,0.65-4.32,1.96-5.96c1.4-1.73,3.26-2.6,5.57-2.6c2.02,0,3.7,0.75,5.04,2.26v-1.81h3.7V51.72
		z M338,44.12c0-1.56-0.42-2.8-1.25-3.74c-0.85-0.96-1.93-1.43-3.24-1.43c-1.41,0-2.51,0.52-3.33,1.56c-0.74,0.93-1.1,2.14-1.1,3.62
		c0,1.46,0.37,2.66,1.1,3.59c0.8,1.02,1.91,1.53,3.33,1.53s2.54-0.52,3.36-1.55C337.62,46.77,338,45.58,338,44.12z"/>
</g>
<circle cx="314.48" cy="15.96" r="4.47"/>
<circle class="st1" cx="307.15" cy="23.36" r="2.87"/>
</svg>
