<?xml version="1.0" encoding="UTF-8"?>
<svg width="53.269mm" height="38.232mm" version="1.1" viewBox="0 0 53.268561 38.232291" xmlns="http://www.w3.org/2000/svg" xmlns:cc="http://creativecommons.org/ns#" xmlns:dc="http://purl.org/dc/elements/1.1/" xmlns:rdf="http://www.w3.org/1999/02/22-rdf-syntax-ns#">
<metadata>
<rdf:RDF>
<cc:Work rdf:about="">
<dc:format>image/svg+xml</dc:format>
<dc:type rdf:resource="http://purl.org/dc/dcmitype/StillImage"/>
<dc:title/>
</cc:Work>
</rdf:RDF>
</metadata>
<g transform="translate(-.24183 -154.8)">
<g transform="matrix(.26458 0 0 .26458 .24183 154.85)">
<rect class="st0" y="-.21" width="201.33" height="119.92" fill="#ed1b2e"/>
<path class="st1" d="m74.39 40.96-4.01 9.56c-4.38-1.91-8.16-2.87-11.34-2.87-2.93 0-5.8 0.84-8.6 2.52s-5.38 4.08-7.74 7.2-3.54 4.87-3.54 5.26v42.95h-9.88v-66.4h9.88v13.44c5.3-10.02 12.18-15.04 20.64-15.04 5.01 0 9.87 1.13 14.59 3.38z" fill="#fff"/>
<path class="st1" d="m120.78 96.72v8.6h-37.01v-84.02h-6.57v-8.6h16.51v84.02z" fill="#fff"/>
<path class="st1" d="m137.91 50.45c3.38-3.4 7.63-5.1 12.78-5.1 3.99 0 7.6 1.77 10.83 5.32s4.84 7.91 4.84 13.09h-34.09c0.38-5.48 2.26-9.92 5.64-13.31zm31.57-4.97c-5.14-5.82-11.53-8.73-19.18-8.73-8.58 0-15.58 3.13-21 9.4s-8.12 14.67-8.12 25.2c0 10.75 3.02 19.29 9.05 25.62s13.97 9.49 23.83 9.49c7.81 0 14.66-1.32 20.52-3.95l-1.72-7.96c-6.41 2.17-12.64 3.25-18.67 3.25-6.33 0-11.67-2.44-16.02-7.33s-6.53-11.09-6.53-18.61h45.56v-3.12c-0.01-9.69-2.58-17.44-7.72-23.26z" fill="#fff"/>
<path d="m52.25 144.28h-4.18l-1.28-3.08h-6.96l-1.16 3.08h-4.11l6.27-15.56h4.49zm-9.11-11.84-2.28 6.05h4.79z"/>
<path d="m74.97 131.58h-5.64v12.71h-3.88v-12.71h-5.64v-2.85h15.15v2.85z"/>
<path d="m116.23 128.73h3.38v15.56h-3.88v-9.72l-4.2 4.88h-0.59l-4.2-4.88v9.72h-3.88v-15.56h3.38l5 5.77z"/>
<path d="m136.67 144.28h-3.88v-15.56h3.88z"/>
<path d="m163.89 131.58h-5.64v12.71h-3.88v-12.71h-5.64v-2.85h15.15v2.85z"/>
</g>
</g>
<style type="text/css">.st0{fill:#ED1B2E;}
	.st1{fill:#FFFFFF;}
	.st2{font-family:'GillSans-SemiBold';}
	.st3{font-size:45.3968px;}
	.st4{letter-spacing:-1;}
	.st5{letter-spacing:1;}
	.st6{letter-spacing:-3;}
	.st7{letter-spacing:-7;}
	.st8{letter-spacing:-2;}
	.st9{letter-spacing:3;}
	.st10{font-family:'GillSans-Light';}</style>
<style type="text/css">.st0{fill:#FFFFFF;}
	.st1{font-family:'GillSans-SemiBold';}
	.st2{font-size:45.3968px;}
	.st3{letter-spacing:-1;}
	.st4{letter-spacing:1;}
	.st5{letter-spacing:-3;}
	.st6{letter-spacing:-7;}
	.st7{letter-spacing:-2;}
	.st8{letter-spacing:3;}
	.st9{font-family:'GillSans-Light';}
	.st10{fill:#ED1B2E;}</style>
<style type="text/css">.st0{fill:#FFFFFF;}
	.st1{font-family:'GillSans-SemiBold';}
	.st2{font-size:45.3968px;}
	.st3{letter-spacing:-1;}
	.st4{letter-spacing:1;}
	.st5{letter-spacing:-3;}
	.st6{letter-spacing:-7;}
	.st7{letter-spacing:-2;}
	.st8{letter-spacing:3;}
	.st9{font-family:'GillSans-Light';}
	.st10{fill:#ED1B2E;}</style>
<style type="text/css">.st0{fill:#ED1B2E;}
	.st1{fill:#FFFFFF;}</style>
<style type="text/css">.st0{fill:#ED1B2E;}
	.st1{fill:#FFFFFF;}</style>
</svg>
