<?xml version="1.0" encoding="UTF-8"?>
<svg enable-background="new 0 0 792 287.16" version="1.1" viewBox="0 0 792 287.16" xml:space="preserve" xmlns="http://www.w3.org/2000/svg" xmlns:cc="http://creativecommons.org/ns#" xmlns:dc="http://purl.org/dc/elements/1.1/" xmlns:rdf="http://www.w3.org/1999/02/22-rdf-syntax-ns#"><metadata><rdf:RDF><cc:Work rdf:about=""><dc:format>image/svg+xml</dc:format><dc:type rdf:resource="http://purl.org/dc/dcmitype/StillImage"/><dc:title/></cc:Work></rdf:RDF></metadata><defs><clipPath id="a"><path d="m-178.3 5.9627c-4.305 0-7.7712 3.4662-7.7712 7.7712v58.967c5.2242-6.4076 13.355-8.6318 22.362-8.6318h57.941v-9.8189c0-21.367 22.835-27.249 34.382-27.249h36.919c12.072-0.20654 23.14 4.1312 27.715 12.055v-24.84c0-4.305-3.4662-8.2532-7.7712-8.2532zm107.35 43.834c-7.4333 0-12.348 3.6249-12.348 7.7904v6.4825h58.676v-6.5007c0-3.9095-2.4296-7.7722-9.8476-7.7722zm64.195 35.591c-1.2775 1.0157-2.5604 1.8098-4.588 1.8098h-71.955v5.6151c0 4.842 5.5887 7.9889 13.145 7.9889h58.81c1.3267 0 3.3906 0.0287 4.588 0.93257zm-156.96 1.8098c-2.6372 0-4.1276 2.5041-4.1276 3.982v6.404c0 1.7645 1.9136 4.3401 4.1276 4.3401h40.818c8.8655 0 18.802 3.7478 22.486 8.4161-3.4759-4.7556-5.5614-10.31-5.3633-15.062v-8.0804zm64.168 24.306c2.9401 3.9181 3.8222 8.445 3.8973 12.48l0.30742 14.12c0 13.246-10.79 22.967-27.554 22.967h-58.445c-2.3699 0-3.7632-0.30764-4.7359-1.6746v18.115c0 4.305 3.4662 7.7712 7.7712 7.7712h163.78c4.305 0 7.7712-3.4662 7.7712-7.7712v-55.209c-1.1302 1.0959-3.0116 1.4842-4.7257 1.4842h-58.81c-14.443 0-23.673-4.9819-29.252-12.282zm-86.531 4.9282v23.706c1.1287-1.264 2.9822-1.8333 4.7359-1.8545h58.445c2.9374 0.0807 4.8461-1.211 4.8461-3.3956v-6.2126c0-1.9392-2.9921-3.9641-4.8461-3.9641h-44.233c-7.6898 0-14.723-3.2028-18.948-8.2791z" opacity=".399" stroke-width="1.0986"/></clipPath></defs>
<style type="text/css">
	.st0{fill:none;}
	.st1{fill:#F6BB60;}
	.st2{fill:#FFFFFF;}
	.st3{fill:#231F20;}
	.st4{fill:#E76F31;}
	.st5{fill:#E4682A;}
	.st6{fill:#F09245;}
	.st7{fill:#F7B863;}
	.st8{fill:#E2B85D;}
	.st9{fill:#74B64A;}
	.st10{fill:#E4682B;}
	.st11{fill:#E26525;}
	.st12{fill:#E46B2C;}
	.st13{fill:#F3A857;}
	.st14{fill:#E77429;}
	.st15{fill:#B1B754;}
	.st16{fill:#56A648;}
	.st17{fill:#47ACC1;}
	.st18{fill:#D5322B;}
	.st19{fill:#1D967F;}
	.st20{fill:#E44144;}
	.st21{fill:#C42628;}
	.st22{fill:#9FB850;}
	.st23{fill:#359848;}
	.st24{fill:#00864D;}
	.st25{fill:#4AB0CD;}
	.st26{fill:#55B8DE;}
	.st27{fill:#DE3B39;}
	.st28{fill:#8BAA48;}
	.st29{fill:#008645;}
	.st30{fill:#2FA09D;}
	.st31{fill:#E54145;}
	.st32{fill:#D02E28;}
	.st33{fill:#BE2C27;}
	.st34{fill:#689440;}
	.st35{fill:#008F6A;}
	.st36{fill:#57B8DC;}
	.st37{fill:#93CBE5;}
	.st38{fill:#DA5126;}
	.st39{fill:#BE2227;}
	.st40{fill:#018445;}
</style>


	<path class="st3" d="M36.98,116.56H9.58V93.39h27.4V116.56z M37.16,244.21H9.75V134.59h27.41V244.21z"/>
	<path class="st3" d="m280.13 197.49c0 31.09-18.4 46.72-55.36 46.72h-113.68c-36.97 0-55.36-15.64-55.36-46.72v-53.52c0-31.27 18.39-46.9 55.36-46.9h113.67c36.97 0 55.36 15.64 55.36 46.9v53.52zm-169.04-66.22c-12.87 0-19.3 4.23-19.3 12.69v53.52c0 8.28 6.43 12.51 19.3 12.51h71.37l-45.06-43.59h47.82l42.3 43.59c11.04-0.55 16.55-4.6 16.55-12.51v-53.52c0-8.46-6.43-12.69-19.31-12.69h-113.67z"/>
	<path class="st3" d="m441.78 208.34c0 23.91-14.72 35.87-44.51 35.87h-54.07c-29.8 0-44.51-11.96-44.51-36.23v-73.39h27.4v73.76c0 8.64 5.52 12.69 17.11 12.69h54.08c11.21 0 17.1-4.6 17.1-12.5v-73.94h27.4v73.74z"/>
	<path class="st3" d="M488.11,244.21h-27.4V97.06h27.4V244.21z"/>


<g transform="matrix(1.4997 0 0 1.4997 792.33 1.4956)" clip-path="url(#a)"><rect x="-186.07" y="5.9627" width="22" height="22" rx="0" ry="0" fill="#e96f30"/><rect x="-164.97" y="5.9627" width="22" height="22" rx="0" ry="0" fill="#e5692a"/><rect x="-186.07" y="27.067" width="22" height="22" rx="0" ry="0" fill="#e96f30"/><rect x="-164.97" y="27.067" width="22" height="22" rx="0" ry="0" fill="#e5692a"/><rect x="-143.86" y="5.9627" width="22" height="22" rx="0" ry="0" fill="#f29246"/><rect x="-143.86" y="27.067" width="22" height="22" rx="0" ry="0" fill="#e36626"/><rect x="-186.07" y="48.172" width="22" height="22" rx="0" ry="0" fill="#e96f30"/><rect x="-164.97" y="48.172" width="22" height="22" rx="0" ry="0" fill="#e56c2b"/><rect x="-143.86" y="48.172" width="22" height="22" rx="0" ry="0" fill="#db5327"/><rect x="-122.76" y="5.9627" width="22" height="22" rx="0" ry="0" fill="#f8b862"/><rect x="-122.76" y="27.067" width="22" height="22" rx="0" ry="0" fill="#f8b862"/><rect x="-122.76" y="48.172" width="22" height="22" rx="0" ry="0" fill="#f4a957"/><rect x="-186.07" y="69.277" width="22" height="22" rx="0" ry="0" fill="#d7332d"/><rect x="-164.97" y="69.277" width="22" height="22" rx="0" ry="0" fill="#bf2329"/><rect x="-143.86" y="69.277" width="22" height="22" rx="0" ry="0" fill="#db5327"/><rect x="-122.76" y="69.277" width="22" height="22" rx="0" ry="0" fill="#e9742a"/><rect x="-101.65" y="5.9627" width="22" height="22" rx="0" ry="0" fill="#f8b862"/><rect x="-101.65" y="27.067" width="22" height="22" rx="0" ry="0" fill="#f8b862"/><rect x="-101.65" y="48.172" width="22" height="22" rx="0" ry="0" fill="#f2b460"/><rect x="-101.65" y="69.277" width="22" height="22" rx="0" ry="0" fill="#b0b855"/><rect x="-186.07" y="90.382" width="22" height="22" rx="0" ry="0" fill="#d7332d"/><rect x="-164.97" y="90.382" width="22" height="22" rx="0" ry="0" fill="#bf2329"/><rect x="-143.86" y="90.382" width="22" height="22" rx="0" ry="0" fill="#db5327"/><rect x="-122.76" y="90.382" width="22" height="22" rx="0" ry="0" fill="#e9742a"/><rect x="-101.65" y="90.382" width="22" height="22" rx="0" ry="0" fill="#e8742a"/><rect x="-80.546" y="5.9627" width="22" height="22" rx="0" ry="0" fill="#e2b85b"/><rect x="-80.546" y="27.067" width="22" height="22" rx="0" ry="0" fill="#73b84a"/><rect x="-80.546" y="48.172" width="22" height="22" rx="0" ry="0" fill="#73b84a"/><rect x="-80.546" y="69.277" width="22" height="22" rx="0" ry="0" fill="#73b84a"/><rect x="-80.546" y="90.382" width="22" height="22" rx="0" ry="0" fill="#73b84a"/><rect x="-186.07" y="111.49" width="22" height="22" rx="0" ry="0" fill="#d7322b"/><rect x="-164.97" y="111.49" width="22" height="22" rx="0" ry="0" fill="#bf2329"/><rect x="-143.86" y="111.49" width="22" height="22" rx="0" ry="0" fill="#db5327"/><rect x="-122.76" y="111.49" width="22" height="22" rx="0" ry="0" fill="#e8742a"/><rect x="-101.65" y="111.49" width="22" height="22" rx="0" ry="0" fill="#b1b854"/><rect x="-80.546" y="111.49" width="22" height="22" rx="0" ry="0" fill="#73b84a"/><rect x="-59.441" y="5.9627" width="22" height="22" rx="0" ry="0" fill="#73b84a"/><rect x="-59.441" y="27.067" width="22" height="22" rx="0" ry="0" fill="#73b84a"/><rect x="-59.441" y="48.172" width="22" height="22" rx="0" ry="0" fill="#73b84a"/><rect x="-59.441" y="69.277" width="22" height="22" rx="0" ry="0" fill="#53a748"/><rect x="-59.441" y="90.382" width="22" height="22" rx="0" ry="0" fill="#53a748"/><rect x="-59.441" y="111.49" width="22" height="22" rx="0" ry="0" fill="#0a8446"/><rect x="-186.07" y="132.59" width="22" height="22" rx="0" ry="0" fill="#e63f45"/><rect x="-164.97" y="132.59" width="22" height="22" rx="0" ry="0" fill="#c5272a"/><rect x="-143.86" y="132.59" width="22" height="22" rx="0" ry="0" fill="#bf2329"/><rect x="-122.76" y="132.59" width="22" height="22" rx="0" ry="0" fill="#db5327"/><rect x="-101.65" y="132.59" width="22" height="22" rx="0" ry="0" fill="#a0b94f"/><rect x="-80.546" y="132.59" width="22" height="22" rx="0" ry="0" fill="#2f9949"/><rect x="-59.441" y="132.59" width="22" height="22" rx="0" ry="0" fill="#05874e"/><rect x="-38.336" y="5.9627" width="22" height="22" rx="0" ry="0" fill="#73b84a"/><rect x="-38.336" y="27.067" width="22" height="22" rx="0" ry="0" fill="#73b84a"/><rect x="-38.336" y="48.172" width="22" height="22" rx="0" ry="0" fill="#73b84a"/><rect x="-38.336" y="69.277" width="22" height="22" rx="0" ry="0" fill="#0a8446"/><rect x="-38.336" y="90.382" width="22" height="22" rx="0" ry="0" fill="#0a8446"/><rect x="-38.336" y="111.49" width="22" height="22" rx="0" ry="0" fill="#1c9880"/><rect x="-38.336" y="132.59" width="22" height="22" rx="0" ry="0" fill="#44b0cd"/><rect x="-186.07" y="153.7" width="22" height="22" rx="0" ry="0" fill="#e63f45"/><rect x="-164.97" y="153.7" width="22" height="22" rx="0" ry="0" fill="#e03939"/><rect x="-143.86" y="153.7" width="22" height="22" rx="0" ry="0" fill="#bf2329"/><rect x="-122.76" y="153.7" width="22" height="22" rx="0" ry="0" fill="#db5327"/><rect x="-101.65" y="153.7" width="22" height="22" rx="0" ry="0" fill="#8cab49"/><rect x="-80.546" y="153.7" width="22" height="22" rx="0" ry="0" fill="#0a8646"/><rect x="-59.441" y="153.7" width="22" height="22" rx="0" ry="0" fill="#2ca29e"/><rect x="-38.336" y="153.7" width="22" height="22" rx="0" ry="0" fill="#52b9e1"/><rect x="-17.231" y="5.9627" width="22" height="22" rx="0" ry="0" fill="#73b84a"/><rect x="-17.231" y="27.067" width="22" height="22" rx="0" ry="0" fill="#73b84a"/><rect x="-17.231" y="48.172" width="22" height="22" rx="0" ry="0" fill="#53a748"/><rect x="-17.231" y="69.277" width="22" height="22" rx="0" ry="0" fill="#42acc1" fill-opacity=".98824"/><rect x="-17.231" y="90.382" width="22" height="22" rx="0" ry="0" fill="#41acc1"/><rect x="-17.231" y="111.49" width="22" height="22" rx="0" ry="0" fill="#41acc1"/><rect x="-17.231" y="132.59" width="22" height="22" rx="0" ry="0" fill="#52b9e1"/><rect x="-17.231" y="153.7" width="22" height="22" rx="0" ry="0" fill="#52b9e1"/><rect x="-186.07" y="174.8" width="22" height="22" rx="0" ry="0" fill="#e63f45"/><rect x="-164.97" y="174.8" width="22" height="22" rx="0" ry="0" fill="#e74046"/><rect x="-143.86" y="174.8" width="22" height="22" rx="0" ry="0" fill="#d22d29"/><rect x="-122.76" y="174.8" width="22" height="22" rx="0" ry="0" fill="#bf2c28"/><rect x="-101.65" y="174.8" width="22" height="22" rx="0" ry="0" fill="#689540"/><rect x="-80.546" y="174.8" width="22" height="22" rx="0" ry="0" fill="#0b916b"/><rect x="-59.441" y="174.8" width="22" height="22" rx="0" ry="0" fill="#55b9df"/><rect x="-38.336" y="174.8" width="22" height="22" rx="0" ry="0" fill="#52b9e1"/><rect x="-17.231" y="174.8" width="22" height="22" rx="0" ry="0" fill="#94cce7"/></g></svg>
