<?xml version="1.0" encoding="UTF-8"?>
<svg enable-background="new 0 0 792 300.4" version="1.1" viewBox="0 0 792 300.4" xml:space="preserve" xmlns="http://www.w3.org/2000/svg">
<style type="text/css">
	.st0{fill:#231F20;}
	.st1{fill:none;stroke:#231F20;stroke-miterlimit:10;}
	.st2{fill:#FFFFFF;}
</style>
	<rect class="st0" x="-650.89" y="59.9" width="172.01" height="87.78"/>
	<path class="st0" d="m-750.96 77.55c0-3.23 2.66-5.89 5.99-5.89 3.14 0 5.89 2.66 5.89 5.89 0 3.33-2.75 5.99-5.89 5.99-3.33 0-5.99-2.66-5.99-5.99zm10.35 62.52h-8.93v-47.98h8.93v47.98z"/>
	<path class="st0" d="m-677.9 92.09v30.02c0 4.27-0.57 10.55 5.51 10.55 5.99 0 5.32-5.8 5.32-10.07v-30.5h8.93v32.4c0 9.88-2.95 16.34-13.87 16.34-13.02 0-14.82-7.32-14.82-18.24v-30.5h8.93z"/>
		<text class="st2" transform="translate(-646.68 140.07)" font-family="'FuturaStd-Condensed'" font-size="95.016px">HACK</text>
	<rect class="st1" x="-759.31" y="59.9" width="280.44" height="87.78"/>
	<path class="st0" d="m-699.56 132.28c3.9-8.07 4.28-19.85 4.28-28.03 0-12.92-0.19-36.77-18.62-36.77s-18.62 23.85-18.62 36.77 0.19 36.77 18.62 36.77c3.8 0 6.94-0.76 9.6-2.95l6.07 9.12 9.4-0.1-10.73-14.81zm-12.01-0.61c-0.08 0.04-0.17 0.07-0.26 0.1-0.24 0.08-0.49 0.15-0.75 0.2-0.17 0.03-0.36 0.05-0.55 0.07-0.16 0.01-0.31 0.06-0.47 0.06-0.04 0-0.08-0.01-0.12-0.01-0.06 0-0.12 0.01-0.18 0.01-7.26 0-8.47-11.83-8.54-26.36-0.01-0.46-0.02-0.91-0.02-1.38-0.01-0.62 0.01-1.24 0.02-1.86 0.09-14.4 1.33-26.08 8.54-26.08 7.51 0 8.55 12.64 8.55 27.84 0 0.21-0.01 0.41-0.01 0.62 0.11 13.37-0.69 24.59-6.21 26.79z"/>
	<path class="st0" d="m-359.14 256.81v75.71h75.71v-75.71h-75.71zm64.23 64.23h-52.75v-52.75h52.75v52.75z"/>
	<rect class="st0" x="-317.97" y="307.4" width="11.48" height="37.85"/>
	<rect class="st0" x="-76.79" y="300.4" width="11.48" height="32.11"/>
	<rect class="st0" x="-76.79" y="256.81" width="11.48" height="32.11"/>
		<rect class="st0" transform="matrix(-1.837e-16 1 -1 -1.837e-16 86.126 503.2)" x="-214.28" y="279.29" width="11.48" height="30.76"/>
		<rect class="st0" transform="matrix(-1.837e-16 1 -1 -1.837e-16 131.54 457.79)" x="-168.87" y="279.29" width="11.48" height="30.76"/>
		<rect class="st0" transform="matrix(-1.837e-16 1 -1 -1.837e-16 99.427 425.68)" x="-168.87" y="247.17" width="11.48" height="30.76"/>
	<rect class="st0" x="-226.03" y="256.81" width="11.48" height="75.71"/>
	<rect class="st0" x="-99.75" y="256.81" width="11.48" height="75.71"/>
	<rect class="st0" x="-134.19" y="256.81" width="11.48" height="75.71"/>
	<rect class="st0" x="-203.07" y="256.81" width="11.48" height="75.71"/>
	<rect class="st0" x="-180.11" y="256.81" width="11.48" height="75.71"/>
	<rect class="st0" x="-157.15" y="256.81" width="11.48" height="75.71"/>
	<rect class="st0" x="-381.02" y="294.66" width="11.48" height="37.85"/>
	<polygon class="st0" points="-248.99 294.66 -248.99 321.04 -260.47 321.04 -260.47 294.66 -271.95 294.66 -271.95 321.04 -271.95 332.52 -260.47 332.52 -248.99 332.52 -237.51 332.52 -237.51 321.04 -237.51 294.66"/>
	<rect class="st0" x="-381.02" y="271.7" width="11.48" height="11.48"/>
	<rect class="st0" x="-122.71" y="321.04" width="11.48" height="11.48"/>
	<rect class="st0" x="-88.27" y="288.92" width="11.48" height="11.48"/>
	<rect class="st0" x="-122.71" y="256.81" width="11.48" height="11.48"/>
	<rect x="-358.64" y="63.43" width="82.97" height="82.97"/>
	<rect x="-312.49" y="146.04" width="18.41" height="18.41"/>
	<polygon points="-384.02 109.58 -384.02 127.99 -384.02 146.4 -365.61 146.4 -365.61 127.99 -365.61 109.58"/>
	<polygon points="-243.32 109.58 -243.32 127.99 -250.29 127.99 -250.29 109.58 -268.7 109.58 -268.7 127.99 -268.7 146.4 -250.29 146.4 -243.32 146.4 -231.88 146.4 -224.91 146.4 -224.91 127.99 -224.91 109.58"/>
	<rect x="-384.02" y="72.75" width="18.41" height="18.41"/>
	<rect class="st2" x="-312.49" y="127.99" width="18.41" height="18.41"/>
	<rect x="-218.01" y="63.43" width="148.8" height="82.61"/>
		<rect class="st2" x="-89" y="109.46" width="9.1" height="25.46"/>
		<rect class="st2" x="-89" y="74.91" width="9.1" height="25.46"/>
			<rect class="st2" transform="matrix(-1.837e-16 1 -1 -1.837e-16 -88.529 298.36)" x="-197.99" y="92.72" width="9.1" height="24.38"/>
			<rect class="st2" transform="matrix(-1.837e-16 1 -1 -1.837e-16 -52.529 262.36)" x="-161.99" y="92.72" width="9.1" height="24.38"/>
			<rect class="st2" transform="matrix(-1.837e-16 1 -1 -1.837e-16 -77.985 236.9)" x="-161.99" y="67.27" width="9.1" height="24.38"/>
		<rect class="st2" x="-207.31" y="74.91" width="9.1" height="60.01"/>
		<rect class="st2" x="-107.2" y="74.91" width="9.1" height="60.01"/>
		<rect class="st2" x="-134.5" y="74.91" width="9.1" height="60.01"/>
		<rect class="st2" x="-189.11" y="74.91" width="9.1" height="60.01"/>
		<rect class="st2" x="-170.91" y="74.91" width="9.1" height="60.01"/>
		<rect class="st2" x="-152.71" y="74.91" width="9.1" height="60.01"/>
		<rect class="st2" x="-125.4" y="125.82" width="9.1" height="9.1"/>
		<rect class="st2" x="-98.1" y="100.36" width="9.1" height="9.1"/>
		<rect class="st2" x="-125.4" y="74.91" width="9.1" height="9.1"/>
	<path class="st0" d="m-357.23 460.3v82.31h82.31v-82.31h-82.31zm69.82 69.83h-57.34v-57.34h57.34v57.34z"/>
	<rect class="st0" x="-312.47" y="515.3" width="12.48" height="41.15"/>
	<rect class="st0" x="-381.02" y="501.46" width="12.48" height="41.15"/>
	<polygon class="st0" points="-237.48 501.46 -237.48 530.13 -249.96 530.13 -249.96 501.46 -262.44 501.46 -262.44 530.13 -262.44 542.61 -249.96 542.61 -237.48 542.61 -225 542.61 -225 530.13 -225 501.46"/>
	<rect class="st0" x="-381.02" y="476.49" width="12.48" height="12.48"/>
	<rect x="-211.4" y="462" width="145.2" height="80.61"/>
		<rect class="st2" x="-85.52" y="506.92" width="8.88" height="24.84"/>
		<rect class="st2" x="-85.52" y="473.2" width="8.88" height="24.84"/>
			<rect class="st2" transform="matrix(-1.837e-16 1 -1 -1.837e-16 315.04 689.91)" x="-191.87" y="490.58" width="8.88" height="23.79"/>
			<rect class="st2" transform="matrix(-1.837e-16 1 -1 -1.837e-16 350.17 654.79)" x="-156.75" y="490.58" width="8.88" height="23.79"/>
			<rect class="st2" transform="matrix(-1.837e-16 1 -1 -1.837e-16 325.33 629.95)" x="-156.75" y="465.74" width="8.88" height="23.79"/>
		<rect class="st2" x="-200.97" y="473.2" width="8.88" height="58.56"/>
		<rect class="st2" x="-103.28" y="473.2" width="8.88" height="58.56"/>
		<rect class="st2" x="-129.92" y="473.2" width="8.88" height="58.56"/>
		<rect class="st2" x="-183.21" y="473.2" width="8.88" height="58.56"/>
		<rect class="st2" x="-165.44" y="473.2" width="8.88" height="58.56"/>
		<rect class="st2" x="-147.68" y="473.2" width="8.88" height="58.56"/>
		<rect class="st2" x="-121.04" y="522.88" width="8.88" height="8.88"/>
		<rect class="st2" x="-94.4" y="498.04" width="8.88" height="8.88"/>
		<rect class="st2" x="-121.04" y="473.2" width="8.88" height="8.88"/>
	<path class="st0" d="m-751.51 466.46c0-3.5 2.88-6.38 6.49-6.38 3.4 0 6.38 2.88 6.38 6.38 0 3.61-2.99 6.49-6.38 6.49-3.61 0-6.49-2.88-6.49-6.49zm11.22 67.77h-9.68v-52.01h9.68v52.01z"/>
	<path class="st0" d="m-672.31 482.22v32.54c0 4.63-0.62 11.43 5.97 11.43 6.49 0 5.77-6.28 5.77-10.92v-33.06h9.68v35.12c0 10.71-3.19 17.71-15.04 17.71-14.11 0-16.07-7.93-16.07-19.77v-33.06h9.69z"/>
	<text transform="translate(-644.91 534.23)" font-family="'FuturaStd-Condensed'" font-size="103px">HACK</text>
	<path class="st0" d="m-472.29 541.57h-212.08l-11.42-15.79c4.22-8.75 4.63-21.52 4.63-30.38 0-14.01-0.21-39.86-20.19-39.86s-20.19 25.85-20.19 39.86 0.21 39.86 20.19 39.86c4.12 0 7.52-0.82 10.4-3.19l6.46 9.7 5.27 8.86h216.93v-9.06zm-236.52-16.45c-0.09 0.04-0.19 0.07-0.28 0.1-0.26 0.09-0.53 0.17-0.81 0.22-0.19 0.04-0.39 0.05-0.59 0.07-0.17 0.02-0.33 0.06-0.51 0.06-0.05 0-0.09-0.01-0.13-0.01-0.07 0-0.13 0.01-0.2 0.01-7.87 0-9.18-12.82-9.26-28.57-0.01-0.5-0.02-0.99-0.02-1.49-0.01-0.67 0.01-1.34 0.03-2.01 0.09-15.61 1.44-28.27 9.26-28.27 8.14 0 9.27 13.7 9.27 30.17 0 0.23-0.01 0.45-0.01 0.67 0.1 14.5-0.76 26.66-6.75 29.05z"/>
<line class="st1" x1="-427.75" x2="-427.75" y2="612"/>
<line class="st1" x1="-812" x2="-20" y1="206.07" y2="206.07"/>
<line class="st1" x1="-812" x2="-20" y1="406.28" y2="406.28"/>
<text transform="translate(-802.61 15.828)" font-family="'Futura-CondensedMedium'" font-size="8px">1</text>
<text transform="translate(-416 15.828)" font-family="'Futura-CondensedMedium'" font-size="8px">2</text>
<text transform="translate(-802.61 224.84)" font-family="'Futura-CondensedMedium'" font-size="8px">3</text>
<text transform="translate(-416 224.84)" font-family="'Futura-CondensedMedium'" font-size="8px">4</text>
<text transform="translate(-802.61 424.85)" font-family="'Futura-CondensedMedium'" font-size="8px">5</text>
<text transform="translate(-416 424.85)" font-family="'Futura-CondensedMedium'" font-size="8px">6</text>
	<path class="st0" d="m2.69 74.49c0-9.14 7.53-16.68 16.95-16.68 8.88 0 16.68 7.54 16.68 16.68 0 9.42-7.8 16.95-16.68 16.95-9.42 0-16.95-7.53-16.95-16.95zm29.32 177.03h-25.29v-135.86h25.29v135.86z"/>
	<path class="st0" d="m209.59 115.66v85.01c0 12.11-1.61 29.86 15.6 29.86 16.95 0 15.07-16.41 15.07-28.52v-86.36h25.29v91.74c0 27.98-8.34 46.27-39.28 46.27-36.86 0-41.97-20.71-41.97-51.65v-86.36h25.29z"/>
		<polygon class="st0" points="480.96 87.93 480.43 87.93 464.28 190.98 496.57 190.98 491.19 161.65"/>
		<path class="st0" d="m286.07 4.74v265.96h-107.99l-29.84-41.24c11.03-22.87 12.11-56.22 12.11-79.36 0-36.59-0.54-104.12-52.73-104.12s-52.73 67.53-52.73 104.12 0.54 104.12 52.73 104.12c10.76 0 19.64-2.15 27.17-8.34l16.87 25.33 13.75 23.15h621.59v-289.62h-500.93zm-171.84 222.98c-0.24 0.1-0.49 0.19-0.74 0.27-0.69 0.23-1.39 0.43-2.13 0.57-0.49 0.09-1.03 0.13-1.55 0.19-0.45 0.04-0.87 0.16-1.34 0.16-0.12 0-0.23-0.03-0.35-0.03-0.18 0-0.33 0.04-0.52 0.04-20.56 0-23.99-33.5-24.19-74.64-0.02-1.3-0.05-2.59-0.06-3.9-0.02-1.76 0.02-3.51 0.07-5.26 0.24-40.78 3.77-73.84 24.19-73.84 21.26 0 24.21 35.78 24.21 78.83 0 0.59-0.03 1.17-0.03 1.76 0.35 37.85-1.91 69.63-17.56 75.85zm294.62 23.8h-26.91v-100.36h-40.63v100.36h-26.91v-202.87h26.91v79.1h40.63v-79.1h26.91v202.87zm99.29 0l-7.53-39.55h-40.36l-7.54 39.55h-26.37l44.13-202.87h21.26l43.59 202.87h-27.18zm123.5-175.16c-5.38-2.69-11.03-5.11-17.22-5.11-37.67 0-37.94 54.89-37.94 80.18 0 26.91 2.16 77.49 39.02 77.49 5.92 0 11.03-1.35 16.15-4.04v23.68c-6.73 4.31-13.72 5.65-21.53 5.65-54.89 0-62.16-58.38-62.16-100.9 0-40.63 5.11-107.36 60.27-107.36 9.15 0 15.61 1.34 23.41 5.92v24.49zm86.09 175.16l-37.93-102.78v102.78h-27.45v-202.87h27.45v97.4l37.94-97.4h27.72l-39.82 98.21 43.05 104.67h-30.96z"/>
	<path class="st0" d="m-762.48 273.47c0-3.28 2.7-5.99 6.08-5.99 3.19 0 5.99 2.7 5.99 5.99 0 3.38-2.8 6.08-5.99 6.08-3.37 0-6.08-2.7-6.08-6.08zm10.53 63.53h-9.08v-48.76h9.08v48.76z"/>
	<path class="st0" d="m-688.23 288.24v30.51c0 4.34-0.58 10.72 5.6 10.72 6.08 0 5.41-5.89 5.41-10.23v-30.99h9.08v32.92c0 10.04-2.99 16.61-14.1 16.61-13.23 0-15.06-7.43-15.06-18.54v-30.99h9.07z"/>
		<polygon class="st0" points="-590.84 278.29 -591.03 278.29 -596.82 315.28 -585.24 315.28 -587.17 304.75"/>
		<path class="st0" d="m-660.78 248.44v95.45h-38.76l-10.71-14.8c3.96-8.21 4.35-20.18 4.35-28.48 0-13.13-0.19-37.37-18.92-37.37s-18.92 24.23-18.92 37.37c0 13.13 0.19 37.36 18.92 37.36 3.86 0 7.05-0.77 9.75-2.99l6.05 9.09 4.94 8.31h223.08v-103.94h-179.78zm-61.67 80.02c-0.09 0.04-0.18 0.07-0.26 0.1-0.25 0.08-0.5 0.16-0.76 0.2-0.18 0.03-0.37 0.05-0.56 0.07-0.16 0.01-0.31 0.06-0.48 0.06-0.04 0-0.08-0.01-0.13-0.01-0.06 0-0.12 0.01-0.19 0.01-7.38 0-8.61-12.02-8.68-26.79-0.01-0.47-0.02-0.93-0.02-1.4-0.01-0.63 0.01-1.26 0.02-1.89 0.09-14.63 1.35-26.5 8.68-26.5 7.63 0 8.69 12.84 8.69 28.29 0 0.21-0.01 0.42-0.01 0.63 0.13 13.59-0.68 25-6.3 27.23zm105.74 8.54h-9.66v-36.02h-14.58v36.02h-9.66v-72.81h9.66v28.39h14.58v-28.39h9.66v72.81zm35.63 0l-2.7-14.19h-14.48l-2.7 14.19h-9.46l15.84-72.81h7.63l15.64 72.81h-9.77zm44.32-62.86c-1.93-0.97-3.96-1.83-6.18-1.83-13.52 0-13.62 19.7-13.62 28.78 0 9.66 0.77 27.81 14 27.81 2.12 0 3.96-0.48 5.79-1.45v8.5c-2.41 1.55-4.92 2.03-7.72 2.03-19.7 0-22.31-20.95-22.31-36.21 0-14.58 1.83-38.53 21.63-38.53 3.28 0 5.6 0.48 8.4 2.12v8.78zm30.9 62.86l-13.62-36.89v36.89h-9.85v-72.81h9.85v34.96l13.62-34.96h9.95l-14.29 35.25 15.45 37.56h-11.11z"/>
</svg>
