<?xml version="1.0" encoding="utf-8"?>
<!-- Generator: Adobe Illustrator 24.3.0, SVG Export Plug-In . SVG Version: 6.00 Build 0)  -->
<svg version="1.1" id="Layer_1" xmlns="http://www.w3.org/2000/svg" xmlns:xlink="http://www.w3.org/1999/xlink" x="0px" y="0px"
	 viewBox="0 0 343.51 62.4" style="enable-background:new 0 0 343.51 62.4;" xml:space="preserve">
<style type="text/css">
	.st0{fill:#B5B5B6;}
	.st1{font-family:'Futura-Medium';}
	.st2{font-size:18.2355px;}
	.st3{font-size:33.7197px;}
	.st4{letter-spacing:-1;}
	.st5{fill:#757576;}
</style>
<text transform="matrix(1 0 0 1 58.9372 22.7795)" class="st0 st1 st2">MIT Center for</text>
<path d="M43.54,43.47l-3.47,2.81c-3.2,2.44-7.8,3.9-11.7,3.9c-11.91,0-21.52-9.89-21.52-21.73c0-11.91,9.47-21.73,21.52-21.73
	c12.05,0,21.52,9.75,21.52,21.73c0,3.79-0.85,7.21-2.6,10.29l4.42,3.89c0.19-0.29,0.37-0.58,0.54-0.88
	c2.29-3.89,3.48-8.18,3.48-13.1c0-15.04-12.19-27.37-27.37-27.37C13.4,1.29,1,13.48,1,28.52c0,15.11,12.4,27.09,27.37,27.09
	c5.29,0,11.49-1.88,15.81-5.15l10.57,10.11h7.45l-9.2-8.76L43.54,43.47z"/>
<text transform="matrix(1 0 0 1 55.9093 52.1023)"><tspan x="0" y="0" class="st1 st3">u</tspan><tspan x="18" y="0" class="st1 st3 st4">an</tspan><tspan x="54.22" y="0" class="st1 st3">t</tspan><tspan x="63.67" y="0" class="st1 st3 st4">u</tspan><tspan x="80.56" y="0" class="st1 st3">m</tspan></text>
<path d="M188.61,23.89c0,0,205.51-47.99,131.72-4.09C320.32,19.8,361.17-9.93,188.61,23.89z"/>
<text transform="matrix(1 0 0 1 161.7589 52.1023)" class="st0 st1 st3">Engineering</text>
<circle cx="314.48" cy="15.96" r="4.47"/>
<circle class="st5" cx="307.15" cy="23.36" r="2.87"/>
</svg>
