<?xml version="1.0" encoding="UTF-8" standalone="no"?>
<!-- Created with Inkscape (http://www.inkscape.org/) -->

<svg
   xmlns:dc="http://purl.org/dc/elements/1.1/"
   xmlns:cc="http://creativecommons.org/ns#"
   xmlns:rdf="http://www.w3.org/1999/02/22-rdf-syntax-ns#"
   xmlns:svg="http://www.w3.org/2000/svg"
   xmlns="http://www.w3.org/2000/svg"
   xmlns:sodipodi="http://sodipodi.sourceforge.net/DTD/sodipodi-0.dtd"
   xmlns:inkscape="http://www.inkscape.org/namespaces/inkscape"
   version="1.1"
   id="svg2"
   xml:space="preserve"
   width="4525.5356"
   height="996.67999"
   viewBox="0 0 4525.5356 996.67999"
   sodipodi:docname="Zapata_logo_3c_lg_horiz.svg"
   inkscape:version="0.92.4 (5da689c313, 2019-01-14)"><metadata
     id="metadata8"><rdf:RDF><cc:Work
         rdf:about=""><dc:format>image/svg+xml</dc:format><dc:type
           rdf:resource="http://purl.org/dc/dcmitype/StillImage" /><dc:title></dc:title></cc:Work></rdf:RDF></metadata><defs
     id="defs6"><clipPath
       clipPathUnits="userSpaceOnUse"
       id="clipPath18"><path
         d="M 0,0 H 5000 V 3500 H 0 Z"
         id="path16"
         inkscape:connector-curvature="0" /></clipPath><clipPath
       clipPathUnits="userSpaceOnUse"
       id="clipPath24"><path
         d="M 0.06,3500.04 H 5000.1 V 0 H 0.06 Z"
         id="path22"
         inkscape:connector-curvature="0" /></clipPath></defs><sodipodi:namedview
     pagecolor="#ffffff"
     bordercolor="#666666"
     borderopacity="1"
     objecttolerance="10"
     gridtolerance="10"
     guidetolerance="10"
     inkscape:pageopacity="0"
     inkscape:pageshadow="2"
     inkscape:window-width="1920"
     inkscape:window-height="1137"
     id="namedview4"
     showgrid="false"
     fit-margin-top="0"
     fit-margin-left="0"
     fit-margin-right="0"
     fit-margin-bottom="0"
     inkscape:zoom="0.14303761"
     inkscape:cx="2470.0891"
     inkscape:cy="855.88981"
     inkscape:window-x="1912"
     inkscape:window-y="-8"
     inkscape:window-maximized="1"
     inkscape:current-layer="g20" /><g
     id="g10"
     inkscape:groupmode="layer"
     inkscape:label="Zapata_logo_3c_lg_horiz"
     transform="matrix(1.3333333,0,0,-1.3333333,-1071.0906,2831.1199)"><g
       id="g12"><g
         id="g14"
         clip-path="url(#clipPath18)"><g
           id="g20"
           clip-path="url(#clipPath24)"><path
             d="M 1544.94,1387.6 H 892.031 l 653.739,93.39 c 3.22,0.46 5.46,3.44 5,6.66 -0.46,3.22 -3.45,5.46 -6.66,5 l -650.424,-92.92 652.874,186.53 c 3.12,0.9 4.93,4.15 4.04,7.28 -0.9,3.12 -4.15,4.93 -7.28,4.04 l -646.427,-184.69 650.367,278.73 c 2.98,1.28 4.37,4.74 3.09,7.73 -1.28,2.98 -4.74,4.37 -7.73,3.09 l -641.137,-274.77 646.377,369.35 c 2.82,1.62 3.8,5.21 2.19,8.04 -1.61,2.82 -5.21,3.8 -8.03,2.18 l -634.723,-362.69 641.063,457.9 c 2.64,1.89 3.26,5.56 1.37,8.21 -1.89,2.65 -5.57,3.26 -8.21,1.37 l -627.418,-448.15 634.668,544 c 2.47,2.11 2.75,5.83 0.64,8.29 -2.12,2.47 -5.84,2.76 -8.3,0.64 l -619.38,-530.89 627.37,627.37 c 2.3,2.3 2.3,6.02 0,8.32 -2.3,2.3 -6.03,2.3 -8.32,0 L 805.095,1385.93 c -0.007,-0.01 -0.014,-0.02 -0.021,-0.02 l -0.022,-0.02 c -0.012,-0.02 -0.024,-0.03 -0.037,-0.04 -0.026,-0.03 -0.053,-0.06 -0.079,-0.08 -0.015,-0.02 -0.032,-0.03 -0.047,-0.05 -0.01,-0.01 -0.019,-0.02 -0.029,-0.03 -0.013,-0.02 -0.024,-0.03 -0.037,-0.05 -0.017,-0.02 -0.031,-0.04 -0.047,-0.05 -0.03,-0.04 -0.062,-0.07 -0.092,-0.11 -0.017,-0.02 -0.034,-0.04 -0.051,-0.06 -0.023,-0.03 -0.045,-0.06 -0.067,-0.08 -0.002,-0.01 -0.005,-0.01 -0.007,-0.01 -0.003,-0.01 -0.006,-0.01 -0.008,-0.01 -0.011,-0.01 -0.022,-0.03 -0.032,-0.04 -0.037,-0.05 -0.069,-0.1 -0.104,-0.15 -0.022,-0.03 -0.045,-0.06 -0.066,-0.09 -0.016,-0.02 -0.032,-0.05 -0.048,-0.07 -0.007,-0.01 -0.014,-0.02 -0.021,-0.03 -0.014,-0.02 -0.027,-0.04 -0.04,-0.07 -0.014,-0.02 -0.029,-0.04 -0.043,-0.06 -0.032,-0.05 -0.06,-0.11 -0.09,-0.16 -0.016,-0.03 -0.036,-0.06 -0.053,-0.09 -0.02,-0.03 -0.039,-0.07 -0.059,-0.11 -0.012,-0.02 -0.025,-0.05 -0.036,-0.07 -0.003,-0.01 -0.007,-0.01 -0.01,-0.02 -0.005,-0.01 -0.011,-0.02 -0.016,-0.03 -0.003,0 -0.006,-0.01 -0.009,-0.02 -0.026,-0.05 -0.047,-0.1 -0.071,-0.16 -0.015,-0.03 -0.034,-0.06 -0.049,-0.09 -0.014,-0.04 -0.029,-0.08 -0.044,-0.11 -0.005,-0.01 -0.01,-0.03 -0.015,-0.04 -0.007,-0.01 -0.012,-0.03 -0.019,-0.05 -0.008,-0.02 -0.019,-0.04 -0.027,-0.06 -0.004,-0.01 -0.008,-0.02 -0.012,-0.03 -0.015,-0.04 -0.026,-0.09 -0.041,-0.13 -0.014,-0.04 -0.031,-0.08 -0.045,-0.13 -0.012,-0.04 -0.024,-0.08 -0.037,-0.12 -0.007,-0.02 -0.012,-0.05 -0.019,-0.07 -0.003,-0.01 -0.005,-0.01 -0.007,-0.02 -0.003,-0.01 -0.007,-0.02 -0.009,-0.03 -10e-4,0 -0.003,-0.01 -0.004,-0.01 -0.002,-0.01 -0.006,-0.02 -0.008,-0.03 -0.011,-0.04 -0.019,-0.08 -0.029,-0.13 -0.013,-0.05 -0.027,-0.1 -0.038,-0.15 -0.007,-0.04 -0.013,-0.07 -0.02,-0.1 -10e-4,-0.01 -0.003,-0.01 -0.003,-0.02 -0.004,-0.02 -0.007,-0.04 -0.011,-0.07 -0.004,-0.02 -0.009,-0.04 -0.013,-0.06 -0.002,-0.01 -0.004,-0.01 -0.005,-0.02 -0.007,-0.04 -0.011,-0.09 -0.016,-0.13 -0.009,-0.06 -0.02,-0.13 -0.027,-0.19 -0.003,-0.03 -0.006,-0.05 -0.008,-0.08 -0.003,-0.03 -0.003,-0.05 -0.006,-0.08 0,-0.01 -0.003,-0.02 -0.003,-0.03 0,0 -10e-4,0 -10e-4,-0.01 -10e-4,0 -10e-4,-0.01 -0.002,-0.02 -0.001,-0.01 -0.002,-0.03 -0.003,-0.04 -0.002,-0.04 -0.002,-0.07 -0.004,-0.11 -0.003,-0.08 -0.006,-0.15 -0.007,-0.23 0,-0.01 -0.002,-0.03 -0.002,-0.04 0,-0.01 0,-0.01 0,-0.02 0,-0.02 0.002,-0.04 0.002,-0.07 0,-0.02 -10e-4,-0.04 -10e-4,-0.06 10e-4,-0.02 0.003,-0.04 0.004,-0.06 0.001,-0.03 0.005,-0.07 0.006,-0.1 0.004,-0.08 0.009,-0.15 0.015,-0.23 0.002,-0.02 0.002,-0.05 0.004,-0.07 0.002,-0.01 0.005,-0.03 0.007,-0.04 10e-4,-0.01 10e-4,-0.02 0.002,-0.03 0.001,-0.01 0.002,-0.03 0.003,-0.04 0.004,-0.03 0.011,-0.06 0.016,-0.09 0.001,-0.01 0.001,-0.02 0.002,-0.03 0.002,-0.01 0.006,-0.02 0.008,-0.03 0,-0.01 0.002,-0.01 0.002,-0.02 0.012,-0.07 0.022,-0.14 0.037,-0.22 10e-4,-0.01 0.002,-0.02 0.004,-0.03 0.006,-0.03 0.013,-0.06 0.02,-0.1 0.003,-0.01 0.004,-0.02 0.008,-0.04 0.014,-0.07 0.036,-0.13 0.053,-0.2 0.013,-0.05 0.02,-0.09 0.034,-0.14 0.004,-0.01 0.009,-0.03 0.013,-0.04 0.013,-0.04 0.024,-0.08 0.037,-0.13 0.002,0 0.005,-0.01 0.007,-0.02 0.002,-0.01 0.004,-0.01 0.006,-0.02 0.001,0 0.001,0 0.002,-0.01 0.006,-0.01 0.013,-0.03 0.019,-0.05 0.004,-0.01 0.01,-0.02 0.014,-0.04 0.014,-0.04 0.032,-0.07 0.046,-0.11 0.017,-0.05 0.031,-0.09 0.049,-0.14 0.008,-0.02 0.014,-0.04 0.022,-0.06 0.015,-0.04 0.031,-0.07 0.047,-0.11 0.021,-0.05 0.043,-0.09 0.066,-0.14 0.021,-0.04 0.044,-0.09 0.066,-0.13 0.037,-0.08 0.071,-0.15 0.112,-0.22 0.007,-0.02 0.016,-0.03 0.025,-0.05 0.007,-0.01 0.012,-0.02 0.018,-0.04 0.01,-0.01 0.022,-0.03 0.031,-0.04 0.013,-0.02 0.03,-0.05 0.044,-0.07 0.027,-0.05 0.054,-0.09 0.083,-0.14 0.007,-0.01 0.012,-0.02 0.018,-0.03 0.011,-0.01 0.02,-0.03 0.032,-0.05 0.017,-0.03 0.036,-0.05 0.054,-0.08 0.017,-0.02 0.033,-0.05 0.05,-0.07 0.004,0 0.006,-0.01 0.01,-0.02 0.02,-0.02 0.043,-0.05 0.063,-0.07 0.04,-0.06 0.08,-0.11 0.122,-0.17 0.007,0 0.013,-0.01 0.02,-0.02 0.012,-0.02 0.021,-0.03 0.033,-0.05 0.013,-0.01 0.026,-0.03 0.039,-0.04 0.036,-0.04 0.074,-0.08 0.111,-0.13 0.044,-0.05 0.088,-0.09 0.134,-0.14 0.027,-0.03 0.051,-0.06 0.077,-0.09 0.01,-0.01 0.019,-0.02 0.029,-0.03 0.032,-0.03 0.066,-0.06 0.099,-0.09 0.04,-0.04 0.08,-0.07 0.121,-0.11 0.032,-0.03 0.061,-0.06 0.092,-0.09 0.005,0 0.009,0 0.014,-0.01 0.02,-0.02 0.042,-0.03 0.063,-0.05 0.042,-0.04 0.087,-0.07 0.13,-0.1 0.038,-0.03 0.074,-0.07 0.114,-0.1 0.042,-0.03 0.087,-0.05 0.131,-0.09 0.041,-0.02 0.08,-0.06 0.122,-0.09 0.013,0 0.025,-0.01 0.038,-0.02 0.005,0 0.011,-0.01 0.017,-0.01 0.032,-0.02 0.067,-0.04 0.099,-0.06 0.061,-0.04 0.122,-0.08 0.184,-0.11 0.025,-0.02 0.049,-0.03 0.074,-0.05 0.04,-0.02 0.079,-0.04 0.12,-0.06 0.014,-0.01 0.03,-0.02 0.045,-0.02 0.048,-0.03 0.097,-0.05 0.146,-0.07 0.02,-0.01 0.038,-0.02 0.058,-0.03 0.013,-0.01 0.026,-0.02 0.04,-0.02 0.033,-0.02 0.066,-0.03 0.099,-0.05 0.036,-0.01 0.073,-0.03 0.11,-0.04 0.009,-0.01 0.016,-0.01 0.025,-0.02 0.013,0 0.026,0 0.039,-0.01 0.01,0 0.022,-0.01 0.032,-0.01 0.006,0 0.012,-0.01 0.019,-0.01 0.028,-0.01 0.055,-0.02 0.083,-0.03 0.035,-0.01 0.07,-0.03 0.105,-0.04 0.019,0 0.037,-0.01 0.055,-0.02 0.011,0 0.021,-0.01 0.03,-0.01 0.02,-0.01 0.039,-0.01 0.059,-0.02 0.035,-0.01 0.071,-0.02 0.106,-0.03 0.027,-0.01 0.054,-0.02 0.081,-0.02 0.008,0 0.017,-0.01 0.025,-0.01 0.053,-0.01 0.105,-0.03 0.158,-0.04 0.041,-0.01 0.081,-0.02 0.122,-0.03 0.03,-0.01 0.06,-0.02 0.089,-0.02 0.026,-0.01 0.052,-0.01 0.078,-0.02 0.013,0 0.027,0 0.039,-0.01 0.029,0 0.058,0 0.087,-0.01 0.038,-0.01 0.076,-0.01 0.115,-0.02 0.032,0 0.063,-0.01 0.095,-0.01 0.03,-0.01 0.061,-0.01 0.091,-0.01 0.019,-0.01 0.038,-0.01 0.058,-0.01 0.013,0 0.027,-0.01 0.041,-0.01 0.179,-0.02 0.363,-0.03 0.547,-0.03 0.012,0 0.024,0 0.036,0 0.009,0 0.018,0 0.028,0 10e-4,0 0.002,0 0.003,0 10e-4,0 10e-4,0 0.002,0 10e-4,0 10e-4,0 10e-4,0 0.001,0 0.001,0 0.001,0 0.003,0 0.006,0 0.009,0 0.004,0 0.008,0 0.013,0 h 735.708 c 3.25,0 5.88,2.63 5.88,5.88 0,3.25 -2.63,5.89 -5.88,5.89"
             style="fill:#00eb80;fill-opacity:1;fill-rule:nonzero;stroke:none"
             id="path26"
             inkscape:connector-curvature="0" /><path
             d="m 921.727,2013.25 619.383,-530.9 c 1.11,-0.95 2.47,-1.42 3.82,-1.42 1.66,0 3.31,0.7 4.48,2.06 2.11,2.46 1.83,6.18 -0.64,8.3 l -634.673,544 627.423,-448.16 c 1.03,-0.74 2.23,-1.09 3.41,-1.09 1.84,0 3.65,0.85 4.8,2.46 1.89,2.65 1.27,6.32 -1.37,8.21 l -641.08,457.91 634.74,-362.7 c 0.92,-0.53 1.92,-0.78 2.91,-0.78 2.05,0 4.03,1.07 5.12,2.97 1.61,2.82 0.63,6.42 -2.19,8.03 l -646.362,369.35 641.122,-274.77 c 0.75,-0.32 1.54,-0.48 2.31,-0.48 2.29,0 4.46,1.34 5.42,3.57 1.28,2.99 -0.11,6.45 -3.09,7.73 l -650.38,278.74 646.44,-184.7 c 0.54,-0.16 1.09,-0.23 1.62,-0.23 2.56,0 4.92,1.69 5.66,4.27 0.89,3.13 -0.92,6.38 -4.04,7.28 l -652.893,186.54 650.443,-92.92 c 0.28,-0.04 0.56,-0.06 0.84,-0.06 2.88,0 5.39,2.12 5.81,5.05 0.46,3.22 -1.77,6.2 -4.99,6.66 l -653.741,93.39 h 652.911 c 3.25,0 5.88,2.64 5.88,5.89 0,3.25 -2.63,5.89 -5.88,5.89 l -735.587,-0.01 c -0.02,0 -0.042,0 -0.062,0 h -0.005 c -0.053,0 -0.105,0 -0.157,0 -0.047,0 -0.093,0 -0.14,0 -0.065,-0.01 -0.132,-0.01 -0.197,-0.01 -0.025,0 -0.049,-0.01 -0.073,-0.01 -0.036,0 -0.072,-0.01 -0.107,-0.01 -0.018,0 -0.037,0 -0.056,-0.01 -0.043,0 -0.087,-0.01 -0.129,-0.01 -0.072,-0.01 -0.143,-0.02 -0.213,-0.03 -0.02,0 -0.04,-0.01 -0.06,-0.01 -0.033,-0.01 -0.066,-0.02 -0.1,-0.02 -0.029,-0.01 -0.057,-0.01 -0.086,-0.02 -0.033,-0.01 -0.064,-0.02 -0.096,-0.02 -0.071,-0.02 -0.143,-0.03 -0.213,-0.05 -0.006,-0.01 -0.012,-0.01 -0.018,-0.01 -10e-4,0 -0.003,0 -0.005,0 -0.007,0 -0.015,-0.01 -0.022,-0.01 -0.007,0 -0.013,0 -0.019,0 -0.029,-0.01 -0.057,-0.02 -0.085,-0.03 -0.037,-0.01 -0.073,-0.02 -0.109,-0.03 -0.025,-0.01 -0.05,-0.02 -0.075,-0.03 -0.066,-0.02 -0.133,-0.04 -0.197,-0.07 -0.026,0 -0.049,-0.02 -0.074,-0.03 -0.016,0 -0.034,-0.01 -0.05,-0.02 -0.012,0 -0.024,-0.01 -0.036,-0.01 -0.036,-0.02 -0.071,-0.03 -0.106,-0.05 -0.024,-0.01 -0.048,-0.02 -0.072,-0.03 -0.052,-0.02 -0.105,-0.04 -0.156,-0.07 -0.008,0 -0.017,-0.01 -0.025,-0.01 -0.009,0 -0.017,-0.01 -0.026,-0.01 -0.007,-0.01 -0.013,-0.01 -0.02,-0.01 -0.01,-0.01 -0.019,-0.01 -0.029,-0.02 -0.025,-0.01 -0.05,-0.03 -0.075,-0.04 -0.035,-0.02 -0.07,-0.04 -0.105,-0.06 -0.023,-0.01 -0.045,-0.02 -0.068,-0.04 -0.058,-0.03 -0.117,-0.06 -0.175,-0.09 -0.024,-0.02 -0.047,-0.04 -0.071,-0.05 -0.02,-0.01 -0.038,-0.03 -0.058,-0.04 -0.011,-0.01 -0.021,-0.01 -0.032,-0.02 -0.024,-0.02 -0.047,-0.03 -0.07,-0.05 -0.027,-0.02 -0.05,-0.04 -0.076,-0.05 -0.053,-0.04 -0.11,-0.08 -0.163,-0.12 -0.013,-0.01 -0.027,-0.02 -0.041,-0.03 -0.003,0 -0.005,0 -0.007,-0.01 -0.006,0 -0.011,-0.01 -0.017,-0.01 -0.026,-0.02 -0.052,-0.04 -0.077,-0.06 -0.021,-0.02 -0.042,-0.04 -0.063,-0.05 -0.031,-0.03 -0.059,-0.06 -0.09,-0.08 -0.026,-0.03 -0.053,-0.05 -0.08,-0.07 -0.009,-0.01 -0.02,-0.02 -0.03,-0.03 -0.03,-0.02 -0.06,-0.05 -0.09,-0.08 -0.025,-0.02 -0.05,-0.05 -0.075,-0.08 -0.015,-0.01 -0.03,-0.02 -0.045,-0.04 -0.037,-0.04 -0.072,-0.08 -0.108,-0.12 -0.031,-0.03 -0.062,-0.06 -0.092,-0.09 -0.025,-0.03 -0.05,-0.06 -0.074,-0.08 -0.022,-0.03 -0.043,-0.06 -0.065,-0.08 -0.012,-0.02 -0.025,-0.03 -0.038,-0.05 -0.035,-0.04 -0.068,-0.09 -0.102,-0.13 -0.032,-0.04 -0.065,-0.08 -0.095,-0.12 -0.02,-0.03 -0.039,-0.06 -0.058,-0.08 -0.015,-0.02 -0.031,-0.05 -0.047,-0.07 -0.012,-0.02 -0.026,-0.04 -0.039,-0.06 -0.006,-0.01 -0.011,-0.01 -0.016,-0.02 -0.002,0 -0.004,-0.01 -0.005,-0.01 -0.024,-0.03 -0.043,-0.07 -0.066,-0.11 -0.033,-0.05 -0.066,-0.1 -0.097,-0.16 -0.003,0 -0.006,0 -0.009,-0.01 -0.015,-0.03 -0.03,-0.05 -0.044,-0.08 -0.004,0 -0.008,-0.01 -0.011,-0.01 -0.005,-0.01 -0.009,-0.02 -0.013,-0.03 -0.013,-0.02 -0.025,-0.04 -0.037,-0.07 -0.024,-0.04 -0.046,-0.09 -0.069,-0.14 -0.028,-0.05 -0.057,-0.11 -0.084,-0.17 -0.018,-0.04 -0.038,-0.08 -0.056,-0.12 -0.013,-0.03 -0.026,-0.06 -0.039,-0.09 -0.005,-0.02 -0.012,-0.03 -0.018,-0.04 -0.014,-0.04 -0.024,-0.07 -0.037,-0.11 -0.022,-0.05 -0.043,-0.11 -0.063,-0.17 -0.014,-0.04 -0.03,-0.08 -0.043,-0.12 -0.004,-0.01 -0.007,-0.02 -0.009,-0.03 -0.011,-0.03 -0.019,-0.07 -0.029,-0.1 -0.006,-0.02 -0.013,-0.04 -0.019,-0.06 -0.009,-0.03 -0.014,-0.06 -0.023,-0.09 -0.012,-0.05 -0.027,-0.1 -0.039,-0.15 -0.008,-0.03 -0.018,-0.07 -0.026,-0.1 -0.004,-0.02 -0.006,-0.04 -0.01,-0.06 -0.002,-0.01 -0.005,-0.01 -0.007,-0.02 -0.003,-0.02 -0.006,-0.04 -0.009,-0.05 -0.003,-0.02 -0.004,-0.04 -0.007,-0.05 -0.012,-0.06 -0.02,-0.12 -0.029,-0.17 -0.005,-0.03 -0.013,-0.06 -0.017,-0.09 -0.002,-0.01 -0.002,-0.03 -0.004,-0.04 -0.004,-0.03 -0.01,-0.05 -0.013,-0.08 -10e-4,-0.01 -0.002,-0.02 -0.003,-0.03 -10e-4,-0.01 -10e-4,-0.01 -0.002,-0.02 v -0.01 c -0.005,-0.05 -0.009,-0.09 -0.012,-0.13 -0.006,-0.07 -0.009,-0.14 -0.013,-0.2 -0.002,-0.04 -0.007,-0.08 -0.008,-0.12 -10e-4,-0.02 -0.003,-0.04 -0.003,-0.06 -0.001,-0.02 10e-4,-0.04 0,-0.06 0,-0.03 -0.002,-0.05 -0.002,-0.08 l 10e-4,-0.01 c 0,-0.02 0.002,-0.03 0.002,-0.05 0,-0.06 0.003,-0.13 0.006,-0.2 0.002,-0.05 0.002,-0.09 0.005,-0.13 10e-4,-0.01 10e-4,-0.03 0.002,-0.04 0.001,-0.01 0.001,-0.01 0.002,-0.02 10e-4,-0.01 0.002,-0.01 0.002,-0.02 0.001,0 0.002,-0.01 0.002,-0.01 0.003,-0.04 0.005,-0.07 0.009,-0.11 10e-4,-0.02 0.004,-0.03 0.005,-0.05 0.008,-0.06 0.017,-0.13 0.027,-0.19 0.005,-0.05 0.009,-0.09 0.016,-0.13 0.002,-0.02 0.004,-0.03 0.006,-0.03 0.003,-0.02 0.007,-0.04 0.01,-0.05 0.005,-0.03 0.008,-0.06 0.013,-0.08 10e-4,-0.01 0.004,-0.02 0.005,-0.03 10e-4,0 10e-4,0 0.002,0 0.005,-0.03 0.01,-0.05 0.015,-0.08 0.012,-0.05 0.025,-0.1 0.039,-0.16 0.011,-0.04 0.018,-0.09 0.029,-0.13 0.003,-0.01 0.007,-0.02 0.01,-0.03 0,0 0.001,0 0.001,-0.01 0.004,-0.01 0.01,-0.02 0.014,-0.04 0.01,-0.03 0.018,-0.07 0.029,-0.1 0.009,-0.03 0.019,-0.06 0.028,-0.09 0.015,-0.05 0.033,-0.09 0.048,-0.14 0.015,-0.04 0.025,-0.08 0.039,-0.12 0.011,-0.03 0.025,-0.06 0.036,-0.09 0.008,-0.02 0.015,-0.04 0.024,-0.06 0.006,-0.02 0.013,-0.03 0.019,-0.05 0.012,-0.02 0.023,-0.05 0.036,-0.08 0.016,-0.04 0.035,-0.08 0.052,-0.11 0.027,-0.06 0.05,-0.12 0.078,-0.18 0.007,-0.01 0.015,-0.02 0.022,-0.04 0.017,-0.03 0.035,-0.07 0.054,-0.1 0.013,-0.03 0.027,-0.05 0.042,-0.08 0.019,-0.03 0.041,-0.07 0.06,-0.1 0.04,-0.07 0.078,-0.14 0.121,-0.21 0.018,-0.02 0.034,-0.05 0.053,-0.08 0.007,-0.01 0.016,-0.02 0.022,-0.03 0.013,-0.02 0.025,-0.04 0.037,-0.06 0.024,-0.03 0.051,-0.07 0.077,-0.1 0.036,-0.05 0.068,-0.11 0.105,-0.15 0.007,-0.01 0.016,-0.02 0.023,-0.03 0.004,-0.01 0.007,-0.01 0.011,-0.02 0.03,-0.03 0.06,-0.07 0.089,-0.11 0.011,-0.01 0.02,-0.02 0.031,-0.03 0.034,-0.04 0.072,-0.08 0.107,-0.12 0.01,-0.02 0.018,-0.03 0.027,-0.04 0.018,-0.02 0.033,-0.04 0.05,-0.06 0.011,-0.01 0.021,-0.02 0.032,-0.03 0.008,-0.01 0.018,-0.02 0.026,-0.03 0.037,-0.04 0.074,-0.08 0.112,-0.11 0.003,-0.01 0.006,-0.01 0.009,-0.01 0.002,0 0.002,-0.01 0.004,-0.01 l 0.028,-0.03 c 0.008,0 0.016,-0.01 0.023,-0.02 l 735.685,-735.68 c 1.14,-1.15 2.65,-1.72 4.16,-1.72 1.5,0 3.01,0.57 4.16,1.72 2.3,2.3 2.3,6.03 0,8.32 l -627.373,627.38"
             style="fill:#00b578;fill-opacity:1;fill-rule:nonzero;stroke:none"
             id="path28"
             inkscape:connector-curvature="0" /><path
             d="m 2185.6,1593.65 c 1.11,-1.27 1.66,-2.69 1.66,-4.27 0,-1.58 -0.55,-2.92 -1.66,-4.03 -1.11,-1.11 -2.45,-1.66 -4.03,-1.66 h -315.21 c -1.89,0 -3.4,0.55 -4.5,1.66 -1.11,1.11 -1.66,2.45 -1.66,4.03 0,1.58 0.63,3 1.9,4.27 l 299.57,309.99 H 1871.1 c -1.58,0 -3,0.63 -4.26,1.9 -1.27,1.26 -1.9,2.68 -1.9,4.27 0,1.57 0.63,2.91 1.9,4.02 1.26,1.11 2.68,1.66 4.26,1.66 h 305.73 c 1.9,0 3.32,-0.55 4.27,-1.66 0.95,-1.11 1.42,-2.29 1.42,-3.55 0,-1.9 -0.63,-3.48 -1.89,-4.74 l -299.57,-310 h 300.51 c 1.58,0 2.92,-0.64 4.03,-1.89"
             style="fill:#002121;fill-opacity:1;fill-rule:nonzero;stroke:none"
             id="path30"
             inkscape:connector-curvature="0" /><path
             d="m 2434.68,1899.38 -108.54,-218.52 h 217.09 z m 167.8,-312.37 c 0,-1.58 -0.47,-2.93 -1.42,-4.03 -0.95,-1.1 -2.37,-1.66 -4.27,-1.66 -1.26,0 -2.53,0.32 -3.79,0.95 -1.27,0.64 -2.06,1.58 -2.37,2.84 l -41.71,83.9 h -228.47 l -41.71,-83.9 c -0.32,-1.26 -1.11,-2.2 -2.37,-2.84 -1.27,-0.63 -2.53,-0.95 -3.79,-0.95 -2.22,0 -3.88,0.95 -4.98,2.85 -1.11,1.89 -1.19,3.79 -0.24,5.68 L 2429,1915.02 c 0.94,1.89 2.84,2.84 5.68,2.84 2.85,0 4.74,-0.95 5.69,-2.84 l 161.64,-325.17 c 0.31,-0.63 0.47,-1.58 0.47,-2.84"
             style="fill:#002121;fill-opacity:1;fill-rule:nonzero;stroke:none"
             id="path32"
             inkscape:connector-curvature="0" /><path
             d="m 3019.59,1766.42 c 12.96,15.64 19.44,34.99 19.44,58.06 0,22.76 -6.48,41.64 -19.44,56.65 -12.96,15 -31.75,22.51 -56.4,22.51 h -222.78 v -160.68 h 222.78 c 24.65,0 43.44,7.82 56.4,23.46 z m -7.11,136.98 c 13.59,-8.05 23.78,-19.04 30.58,-32.94 6.79,-13.91 10.19,-29.23 10.19,-45.98 0,-17.06 -3.4,-32.7 -10.19,-46.92 -6.8,-14.22 -16.99,-25.52 -30.58,-33.89 -13.59,-8.38 -30.02,-12.56 -49.29,-12.56 h -222.78 v -144.57 c 0,-1.59 -0.64,-2.92 -1.9,-4.03 -1.27,-1.11 -2.84,-1.66 -4.74,-1.66 -1.58,0 -3.08,0.55 -4.5,1.66 -1.42,1.11 -2.13,2.44 -2.13,4.03 v 323.27 c 0,1.57 0.54,2.91 1.66,4.02 1.1,1.11 2.44,1.66 4.02,1.66 h 230.37 c 19.27,0 35.7,-4.03 49.29,-12.09"
             style="fill:#002121;fill-opacity:1;fill-rule:nonzero;stroke:none"
             id="path34"
             inkscape:connector-curvature="0" /><path
             d="m 3281.71,1899.38 -108.54,-218.52 h 217.09 z m 167.8,-312.37 c 0,-1.58 -0.48,-2.93 -1.42,-4.03 -0.95,-1.1 -2.37,-1.66 -4.27,-1.66 -1.27,0 -2.53,0.32 -3.79,0.95 -1.27,0.64 -2.06,1.58 -2.37,2.84 l -41.71,83.9 h -228.47 l -41.71,-83.9 c -0.32,-1.26 -1.11,-2.2 -2.37,-2.84 -1.27,-0.63 -2.54,-0.95 -3.8,-0.95 -2.21,0 -3.87,0.95 -4.97,2.85 -1.11,1.89 -1.19,3.79 -0.24,5.68 l 161.63,325.17 c 0.95,1.89 2.85,2.84 5.69,2.84 2.85,0 4.74,-0.95 5.69,-2.84 l 161.63,-325.17 c 0.31,-0.63 0.48,-1.58 0.48,-2.84"
             style="fill:#002121;fill-opacity:1;fill-rule:nonzero;stroke:none"
             id="path36"
             inkscape:connector-curvature="0" /><path
             d="m 3816.14,1913.83 c 1.1,-1.11 1.66,-2.45 1.66,-4.02 0,-1.59 -0.56,-3.01 -1.66,-4.27 -1.11,-1.27 -2.45,-1.9 -4.03,-1.9 h -149.78 v -316.63 c 0,-1.58 -0.64,-2.93 -1.9,-4.03 -1.27,-1.1 -2.84,-1.66 -4.74,-1.66 -1.58,0 -3.08,0.56 -4.5,1.66 -1.42,1.1 -2.13,2.45 -2.13,4.03 v 316.63 h -149.79 c -1.58,0 -2.92,0.63 -4.03,1.9 -1.11,1.26 -1.66,2.68 -1.66,4.27 0,1.57 0.55,2.91 1.66,4.02 1.11,1.11 2.45,1.66 4.03,1.66 h 312.84 c 1.58,0 2.92,-0.55 4.03,-1.66"
             style="fill:#002121;fill-opacity:1;fill-rule:nonzero;stroke:none"
             id="path38"
             inkscape:connector-curvature="0" /><path
             d="m 4029.67,1899.38 -108.54,-218.52 h 217.09 z m 167.8,-312.37 c 0,-1.58 -0.47,-2.93 -1.42,-4.03 -0.95,-1.1 -2.37,-1.66 -4.27,-1.66 -1.26,0 -2.53,0.32 -3.79,0.95 -1.27,0.64 -2.06,1.58 -2.37,2.84 l -41.71,83.9 h -228.47 l -41.71,-83.9 c -0.32,-1.26 -1.11,-2.2 -2.37,-2.84 -1.27,-0.63 -2.54,-0.95 -3.79,-0.95 -2.22,0 -3.88,0.95 -4.98,2.85 -1.11,1.89 -1.19,3.79 -0.24,5.68 l 161.64,325.17 c 0.94,1.89 2.84,2.84 5.68,2.84 2.85,0 4.74,-0.95 5.69,-2.84 L 4197,1589.85 c 0.31,-0.63 0.47,-1.58 0.47,-2.84"
             style="fill:#002121;fill-opacity:1;fill-rule:nonzero;stroke:none"
             id="path40"
             inkscape:connector-curvature="0" /></g></g></g></g></svg>