<?xml version="1.0" encoding="UTF-8" standalone="no"?><!DOCTYPE svg PUBLIC "-//W3C//DTD SVG 1.1//EN" "http://www.w3.org/Graphics/SVG/1.1/DTD/svg11.dtd"><svg width="100%" height="100%" viewBox="0 0 2084 464" version="1.1" xmlns="http://www.w3.org/2000/svg" xmlns:xlink="http://www.w3.org/1999/xlink" xml:space="preserve" xmlns:serif="http://www.serif.com/" style="fill-rule:evenodd;clip-rule:evenodd;stroke-linejoin:round;stroke-miterlimit:2;"><g><path d="M1382.01,247.275c-15.321,13.292 -34.291,20.183 -55.641,20.183l-158.084,0c-21.787,0 -40.112,-6.887 -55.208,-20.183c-15.204,-13.354 -23.133,-30.687 -23.133,-51.838l-0,-12.925c-0,-20.025 7.925,-37.137 23.996,-50.804c16.066,-14.316 33.962,-21.266 54.345,-21.266l100.5,-0l0,47.75l-100.5,-0c-7.008,-0 -12.937,2.32 -18.758,6.945c-6.258,5.055 -8.846,10.6 -8.846,17.38l0,12.925c0,16.091 9.063,23.791 27.604,23.791l158.08,0c18.87,0 28.037,-7.7 28.037,-23.791l0,-122.896c0,-6.508 -2.592,-12.05 -8.842,-17.004c-5.933,-5.063 -12.291,-7.379 -19.191,-7.379l-231.788,-0l0,-47.742l231.788,-0c20.7,-0 38.604,6.946 54.129,20.937c16.171,14.317 23.942,31.438 23.942,51.03l-0,122.937c-0,21.263 -7.338,38.704 -22.43,51.95Z" style="fill:#1d2329;fill-rule:nonzero;"/><path d="M1699.67,195.438c-12.288,48.174 -38.171,72.02 -78.067,72.02l-67.937,0c-40.109,0 -65.775,-23.85 -78.067,-72.021l-50.25,-195.016l53.704,-0l48.304,185.758c5.613,22.071 17.038,33.05 33.863,33.05l53.046,0c16.929,0 29.008,-10.979 34.4,-33.05l47.991,-185.758l53.584,-0l-50.571,195.017Z" style="fill:#1d2329;fill-rule:nonzero;"/><path d="M2059.4,136.329c-16.179,14.271 -33.967,21 -54.134,21l-101.141,0l-0,-48.229l101.141,-0c6.25,-0 12.292,-2.263 18.338,-6.788c6.029,-5 9.05,-10.5 9.05,-16.899l-0,-12.867c-0,-16.092 -9.05,-24.483 -27.388,-24.483l-158.729,-0c-18.329,-0 -27.604,8.391 -27.604,24.483l0,122.35c0,6.841 2.588,12.329 8.846,16.954c5.929,4.954 11.858,7.267 18.758,7.267l232.275,-0l0,47.741l-232.275,0c-20.271,0 -38.17,-6.937 -54.241,-20.604c-16.063,-14.221 -23.825,-31.283 -23.825,-51.462l-0,-122.4c-0,-21.584 7.758,-38.65 22.854,-51.888c15.204,-13.246 33.646,-20.191 55.208,-20.191l158.729,-0c21.567,-0 39.9,6.945 54.996,19.758c15.1,13.346 23.071,30.629 23.071,52.321l0,12.912c0.008,19.754 -7.963,36.6 -23.929,51.025Z" style="fill:#1d2329;fill-rule:nonzero;"/><ellipse cx="410.779" cy="133.592" rx="31.921" ry="31.867" style="fill:#1d2329;"/><ellipse cx="410.779" cy="31.858" rx="31.921" ry="31.858" style="fill:#1d2329;"/><path d="M516.771,203.404c17.629,0 31.921,14.204 31.921,31.867c-0,17.542 -14.288,31.808 -31.921,31.808c-17.629,0 -31.913,-14.267 -31.913,-31.808c0,-17.663 14.288,-31.867 31.913,-31.867Z" style="fill:#1d2329;fill-rule:nonzero;"/><ellipse cx="516.771" cy="133.592" rx="31.921" ry="31.867" style="fill:#3875e1;"/><g><path d="M817.083,195.004l-1.079,4.521c-12.833,44.621 -38.012,66.796 -76.396,66.796l-35.154,-0c-39.841,-0 -65.346,-23.792 -77.692,-71.638l-49.929,-194.262l53.542,-0l48.038,185.116c5.391,22.013 16.874,32.938 33.37,32.938l20.384,-0c16.929,-0 28.95,-11.033 34.45,-32.829c-0,-0 12.508,-38.384 50.575,-38.921c-0,-0 37.47,-3.554 50.25,37.354l0.433,1.458" style="fill:#1d2329;fill-rule:nonzero;"/><path d="M867.875,185.538c5.008,21.258 18.004,32.937 34.45,32.937l20.325,-0c17.038,-0 28.95,-11.033 34.346,-32.938l47.604,-185.116l53.542,-0l-50.359,194.262c-12.35,47.846 -37.958,71.638 -77.854,71.638l-34.991,-0c-39.842,-0 -65.671,-23.954 -78.071,-71.963l51.008,-8.821Z" style="fill:#1d2329;fill-rule:nonzero;"/></g><path d="M301.329,247.7c-15.096,13.354 -33.804,20.4 -55.1,20.4l-246.233,0l-0,-267.9l246.233,-0c20.109,-0 37.684,6.846 53.696,21.05c15.854,14.221 23.617,31.446 23.617,51.029l-0,123.258c0.108,21.271 -7.171,38.817 -22.213,52.163Zm-27.712,-175.308c-0,-6.355 -2.75,-12.005 -8.738,-16.959c-5.821,-4.95 -11.804,-7.266 -18.65,-7.266l-196.525,-0l0,171.654l196.629,-0c18.221,-0 27.388,-7.967 27.388,-24.059l-0,-123.37l-0.104,-0Z" style="fill:#1d2329;fill-rule:nonzero;"/><g><path d="M2.533,339.154l78.071,0l0,11.946l-32.566,0l-0,81.067l-13.475,-0l-0,-81.067l-32.03,0l0,-11.946Z" style="fill:#1d2329;fill-rule:nonzero;"/><path d="M91.113,339.154l12.025,0l-0,39.617c5.066,-6.242 11.483,-9.367 18.979,-9.367c4.096,0 7.762,1.179 11.054,3.125c3.183,2.146 5.658,4.946 7.167,8.392c1.783,3.775 2.537,9.266 2.537,16.366l0,34.884l-12.133,-0l-0,-37.896c-0,-4.521 -1.079,-8.179 -3.184,-10.979c-2.316,-2.8 -5.225,-4.088 -8.841,-4.088c-2.642,0 -5.229,0.642 -7.659,2.146c-2.425,1.4 -4.958,3.658 -7.925,6.792l0,44.025l-12.02,-0l-0,-93.017Z" style="fill:#1d2329;fill-rule:nonzero;"/><path d="M211.567,402.562l-43.192,0c0.325,6.138 2.213,10.663 5.988,14.105c3.666,3.55 8.304,5.379 14.016,5.379c8.192,-0 15.471,-2.588 22.321,-7.638l0,11.942c-3.779,2.371 -7.392,4.096 -11.162,5.387c-3.667,1.188 -7.975,1.613 -13.046,1.613c-6.742,-0 -12.134,-1.613 -16.446,-4.3c-4.2,-2.696 -7.492,-6.567 -10.029,-11.304c-2.534,-4.738 -3.775,-10.334 -3.775,-16.471c-0,-9.375 2.537,-17.008 7.983,-22.933c5.283,-6.025 12.242,-8.825 20.65,-8.825c8.142,-0 14.667,2.8 19.517,8.716c4.746,5.709 7.175,13.354 7.175,22.934l-0,1.395Zm-42.871,-7.429l30.95,0c-0.329,-4.737 -1.675,-8.396 -4.313,-11.196c-2.641,-2.587 -6.091,-3.979 -10.462,-3.979c-4.421,0 -7.983,1.392 -10.729,3.979c-2.75,2.8 -4.525,6.459 -5.446,11.196Z" style="fill:#1d2329;fill-rule:nonzero;"/><path d="M358.533,438.196l-13.37,13.133c-4.096,-0.108 -8.467,-1.079 -12.996,-2.367c-4.638,-1.187 -9.163,-3.016 -13.804,-5.279c-4.742,-2.258 -11.05,-6.025 -18.925,-11.516c-11.375,-1.938 -20.65,-7.217 -27.93,-16.046c-7.383,-8.717 -11.05,-18.734 -11.05,-30.029c0,-14 4.746,-25.413 14.18,-34.667c9.487,-9.046 21.404,-13.563 35.962,-13.563c14.338,0 26.413,4.517 36.017,13.455c9.487,9.266 14.233,20.566 14.233,34.345c0,11.521 -3.558,21.634 -10.837,30.35c-7.28,8.73 -16.55,14.217 -27.93,16.367l3.45,1.4c11,4.2 18.871,6.346 23.721,6.346c2.759,0 5.775,-0.746 9.279,-1.929Zm-47.929,-87.85c-10.462,-0 -19.191,3.229 -26.041,10.233c-6.85,6.779 -10.296,15.388 -10.296,25.513c-0,10.116 3.45,18.296 10.408,25.075c6.846,6.575 15.583,9.912 25.933,9.912c10.188,0 18.763,-3.337 25.825,-10.225c7.063,-6.891 10.513,-15.291 10.513,-25.191c-0,-10.234 -3.288,-18.521 -10.242,-25.305c-7.012,-6.779 -15.587,-10.012 -26.1,-10.012Z" style="fill:#1d2329;fill-rule:nonzero;"/><path d="M415.521,432.167l-0,-7.538c-2.638,2.579 -5.55,4.846 -8.946,6.459c-3.342,1.5 -6.742,2.258 -10.029,2.258c-3.883,-0 -7.55,-0.967 -10.729,-2.8c-3.45,-1.938 -5.988,-4.625 -7.496,-7.858c-1.783,-3.338 -2.429,-9.038 -2.429,-16.684l-0,-35.204l12.025,0l-0,35.204c-0,6.559 0.971,10.867 2.858,13.45c1.888,2.588 5.175,3.888 9.708,3.888c5.984,-0 10.834,-2.909 14.93,-8.617l-0,-43.921l12.133,0l-0,61.575l-12.029,0l-0,-0.212l0.004,-0Z" style="fill:#1d2329;fill-rule:nonzero;"/><path d="M484.317,395.133l-0,26.167c-0,2.042 0.646,3.221 2.1,3.221c1.616,-0 3.937,-1.179 6.958,-3.334l0,7.421c-2.804,1.725 -5.017,2.909 -6.742,3.559c-1.775,0.641 -3.337,0.966 -5.12,0.966c-5.175,0 -8.246,-2.258 -9.167,-6.137c-5.175,3.879 -10.788,6.137 -16.554,6.137c-4.421,0 -7.817,-1.616 -10.784,-4.304c-2.8,-2.8 -4.312,-6.35 -4.312,-10.875c-0,-3.879 1.4,-6.991 4.312,-10.333c2.642,-3.013 6.738,-5.388 11.809,-7.1l15.529,-5.388l-0,-3.125c-0,-7.641 -3.721,-11.3 -11,-11.3c-6.633,0 -13.158,3.23 -19.463,10.125l0,-13.025c4.746,-5.712 11.592,-8.512 20.434,-8.512c6.741,-0 11.916,1.937 16.012,5.279c1.459,1.187 2.538,2.692 3.771,4.417c0.971,1.933 1.621,3.762 1.996,5.6c0.329,1.925 0.221,5.591 0.221,10.541Zm-11.967,24.98l0,-18.305l-8.146,3.013c-4.2,1.721 -7.058,3.446 -8.841,5.167c-1.775,1.62 -2.534,3.666 -2.534,6.137c0,2.692 0.759,4.733 2.429,6.354c1.563,1.721 3.667,2.363 6.305,2.363c3.991,-0 7.495,-1.5 10.787,-4.729Z" style="fill:#1d2329;fill-rule:nonzero;"/><path d="M515.858,370.804l0,7.538c5.555,-5.813 11.696,-8.938 18.6,-8.938c3.721,0 7.384,1.179 10.675,3.125c3.234,2.042 5.771,4.733 7.496,8.179c1.775,3.342 2.696,8.834 2.696,16.367l0,35.096l-12.183,-0l-0,-35.096c-0,-6.242 -0.971,-10.979 -2.859,-13.567c-1.887,-2.587 -5.066,-4.087 -9.595,-4.087c-5.771,-0 -10.625,2.9 -14.721,8.608l-0,44.142l-12.454,-0l-0,-61.367l12.345,0Z" style="fill:#1d2329;fill-rule:nonzero;"/><path d="M563.25,380.708l22.967,-22.604l-0,12.7l19.412,0l0,10.983l-19.304,0l0,30.138c0,6.887 2.75,10.554 8.738,10.554c4.42,0 8.945,-1.4 13.799,-4.312l0,11.412c-4.637,2.588 -9.708,3.767 -15.258,3.767c-5.5,-0 -10.137,-1.613 -13.8,-4.738c-1.187,-0.966 -2.212,-2.262 -2.966,-3.333c-0.646,-1.079 -1.346,-2.8 -1.888,-4.738c-0.537,-2.154 -0.754,-5.708 -0.754,-11.42l-0,-27.117l-10.946,0l0,-1.292Z" style="fill:#1d2329;fill-rule:nonzero;"/><path d="M657.221,432.379l-0,-7.75c-2.425,2.579 -5.55,4.846 -8.838,6.459c-3.291,1.5 -6.737,2.258 -9.92,2.258c-4.096,-0 -7.655,-0.967 -10.838,-2.8c-3.288,-1.938 -5.712,-4.625 -7.496,-7.858c-1.671,-3.125 -2.425,-8.825 -2.425,-16.471l0,-35.417l12.129,0l0,35.204c0,6.559 0.759,10.867 2.75,13.45c1.888,2.588 5.067,3.888 9.813,3.888c5.771,-0 10.841,-2.909 14.825,-8.617l-0,-43.921l12.133,0l0,61.575l-12.133,0Z" style="fill:#1d2329;fill-rule:nonzero;"/><path d="M736.479,387.704l0,44.463l-12.241,-0l-0,-34.338c-0,-6.787 -0.967,-11.525 -2.75,-14.325c-1.888,-2.587 -4.959,-4.087 -9.596,-4.087c-2.429,-0 -4.746,0.641 -6.85,1.933c-2.104,1.3 -4.525,3.233 -7.171,6.354l-0,44.463l-12.188,-0l0,-61.367l12.188,0l-0,8.183c6.146,-6.458 12.237,-9.583 18.058,-9.583c7.871,0 13.913,3.871 18.221,11.517c6.421,-7.538 13.267,-11.517 20.329,-11.517c5.984,0 10.838,2.267 14.717,6.779c3.829,4.313 5.717,10.984 5.717,19.917l-0,36.279l-12.13,0l0,-36.596c0,-5.175 -1.133,-8.829 -3.125,-11.629c-2.104,-2.587 -5.07,-4.092 -9.058,-4.092c-5.062,-0.1 -9.7,2.588 -14.121,7.646Z" style="fill:#1d2329;fill-rule:nonzero;"/><path d="M912.188,410.633l-0,14.755c-9.867,5.487 -21.242,7.849 -34.13,7.849c-10.404,0 -19.245,-2.149 -26.525,-6.237c-7.279,-4.096 -12.991,-9.904 -17.308,-17.121c-4.204,-7.425 -6.308,-15.392 -6.308,-24.004c-0,-13.563 4.746,-25.192 14.45,-34.338c9.762,-9.266 21.675,-13.783 36.021,-13.783c9.7,0 20.754,2.471 32.666,7.646l0,14.425c-10.937,-6.246 -21.616,-9.475 -32.133,-9.475c-10.675,0 -19.408,3.229 -26.688,10.233c-6.954,6.779 -10.512,15.388 -10.512,25.292c-0,10.333 3.558,18.733 10.408,25.292c6.95,6.575 15.85,9.804 26.684,9.804c11.379,0.108 22.537,-3.229 33.375,-10.338Z" style="fill:#1d2329;fill-rule:nonzero;"/><path d="M955.429,370.692c9.167,-0 17.034,3.02 23.238,9.045c6.15,6.138 9.279,13.563 9.279,22.825c-0,8.717 -3.129,16.25 -9.279,22.071c-6.417,5.817 -14.175,8.604 -23.671,8.604c-9.163,0 -16.875,-2.791 -23.075,-8.825c-6.038,-5.812 -9.167,-13.245 -9.167,-22.283c0,-8.937 3.125,-16.467 9.275,-22.392c6.092,-6.025 13.909,-9.045 23.4,-9.045Zm-0.646,10.875c-5.82,-0 -10.57,1.941 -14.341,5.929c-3.775,3.55 -5.609,8.716 -5.609,14.425c0,5.917 1.942,10.866 5.717,14.425c3.775,3.658 8.738,5.7 14.667,5.7c5.879,-0 10.837,-2.042 14.612,-5.813c3.721,-3.666 5.713,-8.4 5.713,-14.316c-0,-5.925 -1.996,-10.875 -6.038,-14.425c-3.779,-3.984 -8.737,-5.925 -14.721,-5.925Z" style="fill:#1d2329;fill-rule:nonzero;"/><path d="M1051.72,387.704l-0,44.463l-12.238,-0l0,-34.338c0,-6.787 -0.975,-11.525 -2.75,-14.325c-1.779,-2.587 -4.958,-4.087 -9.487,-4.087c-2.538,-0 -4.854,0.641 -6.85,1.933c-2.1,1.3 -4.638,3.233 -7.275,6.354l-0,44.463l-12.188,-0l0,-61.367l12.188,0l-0,8.183c6.25,-6.458 12.242,-9.583 18.225,-9.583c7.708,0 13.8,3.871 18.167,11.517c6.42,-7.538 13.266,-11.517 20.22,-11.517c5.988,0 10.946,2.267 14.83,6.779c3.72,4.313 5.608,10.984 5.608,19.917l-0,36.279l-12.025,0l-0,-36.596c-0,-5.175 -1.133,-8.829 -3.233,-11.629c-2.05,-2.587 -5.071,-4.092 -9.059,-4.092c-5.075,-0.1 -9.712,2.588 -14.133,7.646Z" style="fill:#1d2329;fill-rule:nonzero;"/><path d="M1106.82,463.821l-0,-93.017l21.354,0c10.891,0 19.304,2.8 25.446,8.183c6.037,5.488 9.062,13.134 9.062,22.825c0,9.259 -2.808,16.792 -8.416,22.825c-5.713,5.817 -13.155,8.605 -21.996,8.605c-3.988,-0 -8.088,-0.859 -12.938,-2.359l0,32.938l-12.512,-0Zm20.925,-81.504l-8.517,-0l0,37.683c3.771,2.042 7.438,2.9 11.746,2.9c5.612,0 10.35,-2.046 13.804,-6.025c3.667,-3.871 5.392,-9.042 5.392,-15.179c-0,-3.979 -0.642,-7.425 -2.371,-10.867c-1.725,-3.025 -3.992,-5.167 -6.9,-6.567c-2.908,-1.295 -7.333,-1.945 -13.154,-1.945Z" style="fill:#1d2329;fill-rule:nonzero;"/><path d="M1215.08,432.379l0,-7.75c-2.483,2.579 -5.816,4.846 -9.058,6.459c-3.125,1.5 -6.467,2.258 -9.921,2.258c-3.879,-0 -7.441,-0.967 -10.779,-2.8c-3.237,-1.938 -5.933,-4.625 -7.55,-7.858c-1.725,-3.125 -2.371,-8.825 -2.371,-16.471l0,-35.417l12.075,0l0,35.204c0,6.559 0.863,10.867 2.804,13.45c1.729,2.588 5.175,3.888 9.921,3.888c5.821,-0 10.784,-2.909 14.879,-8.617l0,-43.921l12.075,0l0,61.575l-12.075,0Z" style="fill:#1d2329;fill-rule:nonzero;"/><path d="M1235.89,380.708l22.862,-22.604l0,12.7l19.733,0l0,10.983l-19.733,0l0,30.138c0,6.887 2.913,10.554 8.842,10.554c4.204,0 8.841,-1.4 13.696,-4.312l-0,11.412c-4.53,2.588 -9.704,3.767 -15.096,3.767c-5.825,-0 -10.35,-1.613 -13.8,-4.738c-1.296,-0.966 -2.375,-2.262 -3.025,-3.333c-0.858,-1.079 -1.508,-2.8 -1.938,-4.738c-0.65,-2.154 -0.866,-5.708 -0.866,-11.42l-0,-27.117l-10.784,0l0,-1.3l0.109,0l-0,0.008Z" style="fill:#1d2329;fill-rule:nonzero;"/><path d="M1297.25,344.967c1.942,-0 3.45,0.745 4.954,2.145c1.508,1.509 2.163,3.134 2.163,5.175c-0,1.717 -0.65,3.559 -2.163,4.951c-1.504,1.508 -3.017,2.258 -4.954,2.258c-1.946,-0 -3.558,-0.75 -5.175,-2.258c-1.504,-1.392 -2.05,-3.23 -2.05,-4.951c0,-1.941 0.546,-3.666 2.05,-5.175c1.617,-1.287 3.342,-2.145 5.175,-2.145Zm-6.038,25.837l12.184,0l-0,61.575l-12.184,0l0,-61.575Z" style="fill:#1d2329;fill-rule:nonzero;"/><path d="M1332.83,370.804l0,7.538c5.392,-5.813 11.425,-8.938 18.546,-8.938c3.883,0 7.546,1.179 10.567,3.125c3.45,2.042 6.037,4.733 7.546,8.179c1.729,3.342 2.591,8.834 2.591,16.367l0,35.096l-12.075,-0l0,-35.096c0,-6.242 -0.966,-10.979 -2.804,-13.567c-1.941,-2.587 -5.396,-4.087 -9.7,-4.087c-5.616,-0 -10.787,2.9 -14.671,8.608l0,44.142l-12.291,-0l-0,-61.367l12.291,0Z" style="fill:#1d2329;fill-rule:nonzero;"/><path d="M1385.24,392.121c-0,-6.459 2.37,-11.625 7.121,-15.504c4.741,-3.88 11.42,-5.925 19.624,-5.925l25.442,-0l0,9.583l-12.508,-0c2.371,2.475 3.996,4.733 5.175,6.779c0.862,2.05 1.296,4.421 1.296,6.788c-0,3.341 -0.863,6.458 -2.696,9.475c-1.825,3.112 -4.309,5.591 -7.004,7.204c-2.809,1.621 -7.659,2.908 -14.238,3.883c-4.742,0.75 -6.9,2.258 -6.9,4.838c0,1.3 0.863,2.587 2.588,3.445c1.62,0.863 4.745,1.83 9.487,2.696c7.442,1.825 12.292,2.9 14.45,3.871c2.05,0.971 4.092,2.263 5.933,3.979c2.909,2.8 4.313,6.575 4.313,11.2c-0,5.817 -2.483,10.554 -7.658,14c-5.392,3.442 -12.292,5.159 -20.813,5.159c-8.837,-0 -15.85,-1.717 -21.025,-5.159c-5.287,-3.666 -7.546,-8.187 -7.546,-14.212c0,-8.188 4.955,-13.675 15.196,-16.038c-4.204,-2.587 -6.141,-5.287 -6.141,-7.646c-0,-2.154 0.962,-3.879 2.475,-5.387c2.05,-1.721 4.208,-2.8 7.225,-3.658c-9.267,-3.771 -13.796,-10.329 -13.796,-19.371Zm19.837,43.158c-3.991,0 -7.333,0.975 -9.921,2.588c-2.691,1.833 -3.991,4.096 -3.991,6.787c-0,6.246 5.716,9.471 17.146,9.471c5.283,-0 9.595,-0.867 12.504,-2.479c2.804,-1.4 4.533,-3.659 4.533,-6.567c0,-3.012 -2.05,-5.271 -5.929,-7c-3.342,-1.821 -8.088,-2.8 -14.342,-2.8Zm2.804,-53.712c-2.912,-0 -6.037,1.083 -8.195,3.129c-2.367,2.358 -3.45,5.058 -3.45,8.071c-0,3.02 1.083,5.708 3.45,7.866c2.37,2.046 4.958,3.113 8.625,3.113c3.45,-0 6.258,-1.292 8.412,-3.221c2.371,-2.267 3.667,-4.738 3.667,-7.967c-0,-3.012 -1.296,-5.816 -3.667,-7.966c-2.15,-1.946 -5.175,-3.025 -8.842,-3.025Z" style="fill:#1d2329;fill-rule:nonzero;"/><path d="M1567.15,410.633l-0,14.755c-9.917,5.487 -21.025,7.849 -33.958,7.849c-10.571,0 -19.409,-2.149 -26.53,-6.237c-7.116,-4.096 -13.154,-9.904 -17.254,-17.121c-4.096,-7.425 -6.358,-15.392 -6.358,-24.004c-0,-13.563 4.85,-25.192 14.45,-34.338c9.808,-9.266 21.671,-13.783 36.016,-13.783c9.6,0 20.596,2.471 32.563,7.646l-0,14.425c-10.888,-6.246 -21.675,-9.475 -31.917,-9.475c-10.887,0 -19.625,3.229 -26.637,10.233c-7.117,6.779 -10.567,15.388 -10.567,25.292c0,10.333 3.233,18.733 10.35,25.292c6.9,6.575 15.963,9.804 26.638,9.804c11.537,0.108 22.425,-3.229 33.204,-10.338Z" style="fill:#1d2329;fill-rule:nonzero;"/><path d="M1610.39,370.692c9.487,-0 17.037,3.02 23.291,9.045c6.146,6.138 9.275,13.563 9.275,22.825c0,8.717 -3.129,16.25 -9.487,22.071c-6.359,5.817 -14.021,8.604 -23.509,8.604c-9.274,0 -16.929,-2.791 -23.079,-8.825c-6.141,-5.812 -9.27,-13.245 -9.27,-22.283c-0,-8.937 3.129,-16.467 9.487,-22.392c6.037,-6.025 13.8,-9.045 23.292,-9.045Zm-0.434,10.875c-5.825,-0 -10.675,1.941 -14.45,5.929c-3.67,3.55 -5.391,8.716 -5.391,14.425c-0,5.917 1.721,10.866 5.608,14.425c3.879,3.658 8.625,5.7 14.875,5.7c5.825,-0 10.567,-2.042 14.454,-5.813c3.667,-3.666 5.609,-8.4 5.609,-14.316c-0,-5.925 -1.942,-10.875 -5.821,-14.425c-4.1,-3.984 -8.954,-5.925 -14.884,-5.925Z" style="fill:#1d2329;fill-rule:nonzero;"/><path d="M1706.79,387.704l-0,44.463l-12.292,-0l-0,-34.338c-0,-6.787 -0.867,-11.525 -2.588,-14.325c-1.829,-2.587 -5.066,-4.087 -9.596,-4.087c-2.483,-0 -4.749,0.641 -7.012,1.933c-1.942,1.3 -4.425,3.233 -7.117,6.354l0,44.463l-12.075,-0l0,-61.367l12.075,0l0,8.183c6.255,-6.458 12.4,-9.583 18.33,-9.583c7.658,0 13.8,3.871 17.899,11.517c6.688,-7.538 13.371,-11.517 20.488,-11.517c5.933,0 11,2.267 14.667,6.779c3.883,4.313 5.716,10.984 5.716,19.917l0,36.279l-11.75,0l0,-36.596c0,-5.175 -1.187,-8.829 -3.237,-11.629c-2.163,-2.587 -5.392,-4.092 -9.058,-4.092c-5.396,-0.1 -9.917,2.588 -14.45,7.646Z" style="fill:#1d2329;fill-rule:nonzero;"/><path d="M1761.78,463.821l0,-93.017l21.246,0c10.888,0 19.517,2.8 25.558,8.183c6.034,5.488 8.842,13.134 8.842,22.825c0,9.259 -2.592,16.792 -8.304,22.825c-5.713,5.817 -12.938,8.605 -21.788,8.605c-3.987,-0 -8.083,-0.859 -13.15,-2.359l0,32.938l-12.404,-0Zm21.242,-81.504l-8.738,-0l0,37.683c3.884,2.042 7.55,2.9 11.863,2.9c5.608,0 10.246,-2.046 13.8,-6.025c3.454,-3.871 5.5,-9.042 5.5,-15.179c0,-3.979 -0.867,-7.425 -2.479,-10.867c-1.725,-3.025 -3.888,-5.167 -7.013,-6.567c-2.9,-1.295 -7.216,-1.945 -12.933,-1.945Z" style="fill:#1d2329;fill-rule:nonzero;"/><path d="M1870.37,395.133l-0,26.167c-0,2.042 0.754,3.221 2.266,3.221c1.4,-0 3.663,-1.179 6.792,-3.334l0,7.421c-2.696,1.725 -4.958,2.909 -6.579,3.559c-1.725,0.641 -3.559,0.966 -5.175,0.966c-5.388,0 -8.413,-2.258 -9.275,-6.137c-5.175,3.879 -10.888,6.137 -16.496,6.137c-4.204,0 -7.871,-1.616 -10.892,-4.304c-2.908,-2.8 -4.312,-6.35 -4.312,-10.875c-0,-3.879 1.508,-6.991 4.096,-10.333c2.808,-3.013 6.904,-5.388 11.97,-7.1l15.634,-5.388l-0,-3.125c-0,-7.641 -3.659,-11.3 -11.209,-11.3c-6.683,0 -12.941,3.23 -19.408,10.125l0,-13.025c4.958,-5.712 11.429,-8.512 20.488,-8.512c6.795,-0 11.971,1.937 16.062,5.279c1.296,1.187 2.484,2.692 3.559,4.417c1.079,1.933 1.729,3.762 2.05,5.6c0.324,1.925 0.429,5.591 0.429,10.541Zm-11.971,24.98l-0,-18.305l-8.192,3.013c-3.992,1.721 -6.9,3.446 -8.846,5.167c-1.725,1.62 -2.366,3.666 -2.366,6.137c-0,2.692 0.862,4.733 2.366,6.354c1.509,1.721 3.884,2.363 6.259,2.363c3.879,-0 7.441,-1.5 10.779,-4.729Z" style="fill:#1d2329;fill-rule:nonzero;"/><path d="M1902.18,370.804l0,7.538c5.5,-5.813 11.425,-8.938 18.438,-8.938c3.883,0 7.437,1.179 10.891,3.125c2.913,2.042 5.609,4.733 7.442,8.179c1.829,3.342 2.479,8.834 2.479,16.367l0,35.096l-12.183,-0l-0,-35.096c-0,-6.242 -1.192,-10.979 -2.913,-13.567c-1.833,-2.587 -5.066,-4.087 -9.7,-4.087c-5.616,-0 -10.466,2.9 -14.454,8.608l0,44.142l-12.508,-0l-0,-61.367l12.508,0Z" style="fill:#1d2329;fill-rule:nonzero;"/><path d="M1993.3,370.804l13.8,0l-43.663,93.013l-13.375,-0l20.592,-44.359l-23.504,-48.654l13.908,0l16.392,34.663l15.85,-34.663Z" style="fill:#1d2329;fill-rule:nonzero;"/><path d="M2033.73,407.408l-6.033,0l-0,-29.937l-11.329,-0l-0,-4.946l28.687,0l0,4.946l-11.546,-0l0,29.937l0.221,0Zm20.596,0l-5.167,0l0,-34.666l8.513,-0l8.841,27.779l8.413,-27.779l8.413,-0l-0,34.666l-5.388,0l0,-29.287l-8.842,29.287l-5.395,0l-9.492,-29.712l-0,29.712l0.104,0Z" style="fill:#1d2329;fill-rule:nonzero;"/></g></g></svg>