<?xml version="1.0" encoding="UTF-8" standalone="no"?><!DOCTYPE svg PUBLIC "-//W3C//DTD SVG 1.1//EN" "http://www.w3.org/Graphics/SVG/1.1/DTD/svg11.dtd"><svg width="100%" height="100%" viewBox="0 0 1425 250" version="1.1" xmlns="http://www.w3.org/2000/svg" xmlns:xlink="http://www.w3.org/1999/xlink" xml:space="preserve" xmlns:serif="http://www.serif.com/" style="fill-rule:evenodd;clip-rule:evenodd;stroke-linejoin:round;stroke-miterlimit:2;"><path d="M539.854,86.921l5.808,0l0,69.704l41.952,-0l-0,5.809l-47.76,-0l-0,-75.513Z" style="fill:#00599c;fill-rule:nonzero;"/><path d="M620.53,140.49l-9.681,21.944l-6.455,-0l32.916,-76.158l6.454,-0l32.916,76.158l-6.454,-0l-9.681,-21.944l-40.015,-0Zm28.397,-27.107c-3.227,-7.1 -8.39,-19.362 -8.39,-19.362c0,-0 -5.163,12.262 -8.39,19.362l-9.036,21.298l35.498,0l-9.682,-21.298Z" style="fill:#00599c;fill-rule:nonzero;"/><path d="M734.121,122.418c7.1,0.646 18.071,5.809 18.071,19.363c0,13.553 -9.681,20.653 -25.17,20.653l-28.398,-0l-0,-75.513l25.816,0c14.199,0 22.589,7.745 22.589,18.717c-0.645,10.326 -7.099,14.844 -12.908,16.78Zm-10.326,-2.581c9.681,-0 16.78,-4.518 16.78,-14.199c0,-8.39 -6.454,-13.554 -17.426,-13.554l-18.717,0l0,27.753l19.363,-0Zm2.581,37.433c11.618,0 19.362,-5.163 19.362,-15.489c0,-10.327 -9.035,-16.781 -19.362,-16.781l-21.944,0l0,32.27l21.944,0Z" style="fill:#00599c;fill-rule:nonzero;"/><path d="M809.634,84.985c21.943,-0 39.369,15.49 39.369,39.37c0,23.88 -17.426,39.369 -39.369,39.369c-21.944,0 -39.37,-15.489 -39.37,-39.369c-0,-23.235 17.426,-39.37 39.37,-39.37m-0,72.931c18.071,-0 32.915,-12.908 32.915,-33.561c0,-20.653 -14.844,-33.562 -32.915,-33.562c-18.072,0 -32.916,12.909 -32.916,33.562c-0,21.298 14.199,33.561 32.916,33.561" style="fill:#00599c;fill-rule:nonzero;"/><path d="M896.118,131.454l-18.717,0l0,30.98l-6.454,-0l0,-75.513l21.944,0c17.426,0 27.753,8.39 27.753,23.235c-0,12.262 -7.1,18.716 -18.072,20.653l19.362,32.27l-7.745,-0l-18.071,-31.625Zm-2.582,-5.163c12.263,-0 20.653,-3.873 20.653,-16.135c0,-12.263 -8.39,-17.426 -21.298,-17.426l-15.49,-0l0,33.561l16.135,-0Z" style="fill:#00599c;fill-rule:nonzero;"/><path d="M955.495,140.49l-9.681,21.944l-6.454,-0l32.916,-76.158l6.454,-0l32.916,76.158l-6.454,-0l-9.681,-21.944l-40.016,-0Zm28.398,-27.107c-3.227,-7.1 -8.39,-19.362 -8.39,-19.362c0,-0 -5.163,12.262 -8.39,19.362l-9.036,21.298l35.497,0l-9.681,-21.298Z" style="fill:#00599c;fill-rule:nonzero;"/><path d="M1049.72,92.73l-0,69.704l-6.454,-0l-0,-69.704l-27.107,-0l-0,-5.809l60.022,0l0,5.809l-26.461,-0Z" style="fill:#00599c;fill-rule:nonzero;"/><path d="M1128.46,84.985c21.944,-0 39.37,15.49 39.37,39.37c0,23.88 -17.426,39.369 -39.37,39.369c-21.943,0 -39.369,-15.489 -39.369,-39.369c0.645,-23.235 17.426,-39.37 39.369,-39.37m0,72.931c18.072,-0 32.916,-12.908 32.916,-33.561c0,-20.653 -14.844,-33.562 -32.916,-33.562c-18.071,0 -32.915,12.909 -32.915,33.562c-0,21.298 14.844,33.561 32.915,33.561" style="fill:#00599c;fill-rule:nonzero;"/><path d="M1215.59,131.454l-18.717,0l0,30.98l-6.454,-0l0,-75.513l21.944,0c17.426,0 27.753,8.39 27.753,23.235c-0,12.262 -7.1,18.716 -18.072,20.653l19.362,32.27l-7.744,-0l-18.072,-31.625Zm-2.581,-5.163c12.262,-0 20.653,-3.873 20.653,-16.135c-0,-12.263 -8.391,-17.426 -21.299,-17.426l-15.49,-0l0,33.561l16.136,-0Z" style="fill:#00599c;fill-rule:nonzero;"/><rect x="1264" y="86.921" width="6.454" height="76.158" style="fill:#00599c;"/><path d="M1297.56,86.921l49.696,0l0,5.809l-43.242,-0l-0,27.107l34.206,-0l0,5.808l-34.206,0l-0,30.98l43.887,-0l0,5.809l-50.341,-0l-0,-75.513Z" style="fill:#00599c;fill-rule:nonzero;"/><path d="M1372.43,141.135c0.645,12.263 10.972,17.426 23.234,17.426c12.263,0 19.363,-5.163 19.363,-15.49c-0,-14.199 -13.554,-14.844 -23.235,-16.78c-10.326,-2.582 -23.88,-5.809 -23.88,-20.653c0,-12.908 9.036,-20.008 24.525,-20.008c13.554,0 23.88,5.809 27.108,18.717l-5.809,1.936c-1.936,-9.035 -9.036,-14.844 -21.299,-14.844c-12.262,-0 -18.716,5.163 -18.716,14.199c-0,10.972 10.326,13.553 21.298,16.135c11.617,1.936 25.816,5.163 25.816,21.944c0,14.199 -9.681,21.298 -25.816,21.298c-12.263,0 -27.107,-4.518 -29.043,-21.298l6.454,-2.582Z" style="fill:#00599c;fill-rule:nonzero;"/><path d="M169.391,159.207c-16.781,-7.1 -35.498,-12.909 -54.86,-16.781l0,62.604l54.86,0l-0,-45.823Z" style="fill:#7aaadb;fill-rule:nonzero;"/><path d="M59.026,136.617l-54.859,0l-0,68.413l54.859,0l0,-68.413Z" style="fill:#7aaadb;fill-rule:nonzero;"/><path d="M373.984,165.661l0,-118.755l-54.859,-0l-0,158.124l121.982,0l-0,-39.369l-67.123,-0Z" style="fill:#00599c;fill-rule:nonzero;"/><path d="M311.38,199.222c-10.326,-20.008 -25.171,-36.788 -42.597,-49.051c20.653,-7.745 35.498,-27.107 35.498,-49.696c-0,-29.044 -24.526,-52.924 -54.86,-52.924l-67.122,0l-0,43.242l55.505,0c7.745,0 13.553,6.455 13.553,13.554c0,3.872 -1.291,7.099 -3.872,9.681l-77.449,0l0,-67.122l-54.859,-0l-0,67.122l-54.86,0l0,-67.122l-54.86,-0l0,78.739l47.115,0c55.505,0 105.847,13.554 144.571,36.143c2.582,1.291 4.518,2.582 7.1,3.873c0.645,-0 0.645,0.645 1.29,0.645c1.937,1.291 3.873,2.582 5.164,3.872c0.645,0.646 1.29,0.646 1.936,1.291c4.518,3.227 8.39,5.809 12.263,9.681c0.645,0.646 0.645,0.646 1.29,1.291c1.291,1.291 3.227,2.582 4.518,3.873c0.646,-0 0.646,0.645 1.291,0.645c1.936,1.936 3.873,3.227 5.163,5.163c0.646,0.646 0.646,0.646 0.646,1.291c1.291,1.291 2.581,3.227 3.872,4.518c0.646,0.645 0.646,0.645 1.291,1.291c1.291,1.936 3.227,3.872 4.518,5.163l64.54,-0l0,-5.163l-0.645,-0Z" style="fill:#00599c;fill-rule:nonzero;"/><rect x="486.285" y="6.891" width="7.745" height="236.219" style="fill:#00599c;"/></svg>