<?xml version="1.0" encoding="utf-8"?>
<!-- Generator: Adobe Illustrator 22.0.1, SVG Export Plug-In . SVG Version: 6.00 Build 0)  -->
<svg version="1.1" id="Layer_1" xmlns="http://www.w3.org/2000/svg" xmlns:xlink="http://www.w3.org/1999/xlink" x="0px" y="0px"
	 viewBox="0 0 100 34.7" style="enable-background:new 0 0 100 34.7;" xml:space="preserve">
<style type="text/css">
	.st0{fill:#D4D4D5;}
	.st1{fill:#ED7C37;}
	.st2{fill:#B7B7B8;}
	.st3{fill:#DE5126;}
	.st4{fill:#C2C2C3;}
	.st5{fill:#A2A2A2;}
	.st6{fill:#929293;}
	.st7{fill:#F89B33;}
</style>
<title>ionq-logo-dark</title>
<polygon class="st0" points="15,4.2 26.4,10.8 30,8.7 15,0 0,8.7 3.6,10.8 "/>
<polygon class="st1" points="3.6,10.8 3.6,10.8 3.6,23.9 4.8,23.2 7.3,21.8 7.3,12.9 15,8.4 15,5.5 15,4.2 "/>
<polygon class="st2" points="26.4,10.8 26.4,23.9 25.2,23.2 30,26 30,8.7 "/>
<polygon class="st3" points="26.4,10.8 15,4.2 15,5.5 15,8.4 22.7,12.9 22.7,21.8 25.2,23.2 26.4,23.9 "/>
<polygon class="st4" points="26.4,28.1 26.4,28.1 26.4,28.1 "/>
<path class="st5" d="M26.4,28.1L22.7,26L26.4,28.1z"/>
<polygon class="st6" points="22.7,26 22.7,26 22.7,30.2 22.7,30.2 26.4,32.3 26.4,28.1 26.4,28.1 "/>
<polygon class="st6" points="4.8,23.2 4.8,23.2 3.6,23.9 3.6,10.8 0,8.7 0,26 15,34.7 15,30.5 3.6,23.9 "/>
<polygon class="st2" points="15,34.7 22.7,30.2 22.7,26 15,30.5 "/>
<polygon class="st4" points="22.7,26 22.7,26 22.7,26 "/>
<polygon class="st7" points="26.4,23.9 25.3,23.3 22.7,21.8 15,26.3 7.3,21.8 4.8,23.2 3.6,23.9 15,30.5 22.7,26 22.7,26 22.7,26 
	26.4,28.1 26.4,28.1 30,26 "/>
<polygon class="st2" points="30,26 26.4,28.1 26.4,32.3 30,30.2 "/>
<path class="st6" d="M38.6,25.6v-17h3.8v17H38.6z"/>
<path class="st6" d="M53.5,8.3c4.7-0.1,8.7,3.6,8.8,8.4c0,0.2,0,0.3,0,0.5c0,4.9-4,8.8-8.8,8.8c-4.9,0-8.8-4-8.8-8.8c0,0,0,0,0,0
	c-0.1-4.8,3.6-8.7,8.3-8.9C53.1,8.3,53.3,8.3,53.5,8.3z M53.5,22.3c2.6,0.1,4.8-2,4.9-4.7c0-0.2,0-0.3,0-0.5c0.1-2.7-1.9-5-4.7-5.1
	c-2.7-0.1-5,1.9-5.1,4.7c0,0.2,0,0.3,0,0.5c-0.2,2.6,1.8,4.9,4.4,5.1C53.1,22.3,53.3,22.3,53.5,22.3z"/>
<path class="st6" d="M75.3,25.6l-7-11.2v11.2h-3.8v-17h4.6L75.5,19V8.7h3.8v17H75.3z"/>
<path class="st6" d="M90.3,8.3c4.7-0.1,8.7,3.6,8.8,8.4c0,0.2,0,0.3,0,0.5c0,2.1-0.6,4.1-1.9,5.7l2.1,2.3l-2.5,2.1l-2.1-2.3
	c-1.4,0.7-2.9,1.1-4.4,1.1c-4.7,0.1-8.7-3.6-8.8-8.3c0-0.2,0-0.3,0-0.5c-0.1-4.8,3.6-8.7,8.3-8.9C90,8.3,90.2,8.3,90.3,8.3z
	 M90.3,22.3c0.6,0,1.2-0.1,1.7-0.3l-2.5-2.7l2.5-2.1l2.5,2.7c0.4-0.8,0.7-1.8,0.6-2.7c0.1-2.7-1.9-5-4.7-5.1s-5,1.9-5.1,4.7
	c0,0.2,0,0.3,0,0.5c-0.2,2.6,1.8,4.9,4.4,5.1C90,22.3,90.2,22.3,90.3,22.3z"/>
</svg>
