<?xml version="1.0" encoding="UTF-8"?>
<svg enable-background="new 0 0 778.5 144" version="1.1" viewBox="0 0 778.5 144" xml:space="preserve" xmlns="http://www.w3.org/2000/svg">
<style type="text/css">
	.st0{fill:#ED1B2E;}
	.st1{fill:#FFFFFF;}
</style>
<rect class="st0" y="-.21" width="201.33" height="119.92"/>
<path class="st1" d="m74.39 40.96l-4.01 9.56c-4.38-1.91-8.16-2.87-11.34-2.87-2.93 0-5.8 0.84-8.6 2.52s-5.38 4.08-7.74 7.2-3.54 4.87-3.54 5.26v42.95h-9.88v-66.4h9.88v13.44c5.3-10.02 12.18-15.04 20.64-15.04 5.01 0 9.87 1.13 14.59 3.38z"/>
<path class="st1" d="M120.78,96.72v8.6H83.77V21.3H77.2v-8.6h16.51v84.02H120.78z"/>
<path class="st1" d="m137.91 50.45c3.38-3.4 7.63-5.1 12.78-5.1 3.99 0 7.6 1.77 10.83 5.32s4.84 7.91 4.84 13.09h-34.09c0.38-5.48 2.26-9.92 5.64-13.31zm31.57-4.97c-5.14-5.82-11.53-8.73-19.18-8.73-8.58 0-15.58 3.13-21 9.4s-8.12 14.67-8.12 25.2c0 10.75 3.02 19.29 9.05 25.62s13.97 9.49 23.83 9.49c7.81 0 14.66-1.32 20.52-3.95l-1.72-7.96c-6.41 2.17-12.64 3.25-18.67 3.25-6.33 0-11.67-2.44-16.02-7.33s-6.53-11.09-6.53-18.61h45.56v-3.12c-0.01-9.69-2.58-17.44-7.72-23.26z"/>
<path d="m52.25 144.28h-4.18l-1.28-3.08h-6.96l-1.16 3.08h-4.11l6.27-15.56h4.49l6.93 15.56zm-9.11-11.84l-2.28 6.05h4.79l-2.51-6.05z"/>
<path d="m74.97 131.58h-5.64v12.71h-3.88v-12.71h-5.64v-2.85h15.15v2.85z"/>
<path d="m116.23 128.73h3.38v15.56h-3.88v-9.72l-4.2 4.88h-0.59l-4.2-4.88v9.72h-3.88v-15.56h3.38l5 5.77 4.99-5.77z"/>
<path d="m136.67 144.28h-3.88v-15.56h3.88v15.56z"/>
<path d="m163.89 131.58h-5.64v12.71h-3.88v-12.71h-5.64v-2.85h15.15v2.85z"/>
	<path d="m244.56 22.12c2.91 0 5.28 0.81 7.12 2.42s2.75 3.71 2.75 6.29c0 1.76-0.46 3.29-1.36 4.6-0.91 1.31-2.26 2.34-4.05 3.09 0.99 0.53 1.87 1.26 2.64 2.17s1.72 2.46 2.86 4.63c1.89 3.75 3.3 6.34 4.21 7.76h-6.67c-0.46-0.68-1.08-1.77-1.86-3.26-1.71-3.3-2.97-5.52-3.77-6.66-0.8-1.15-1.57-1.96-2.31-2.44s-1.59-0.72-2.55-0.72h-2.17v13.08h-5.98v-30.96h11.14zm-1.35 13.21c1.57 0 2.8-0.39 3.69-1.17s1.34-1.85 1.34-3.21c0-1.42-0.44-2.48-1.33-3.18s-2.15-1.05-3.79-1.05h-3.72v8.62h3.81z"/>
	<path d="m282.67 22.12v4.68h-14.03v8.13h13.43v4.68h-13.43v8.8h14.34v4.68h-20.33v-30.97h20.02z"/>
	<path d="m297.54 21.72c3.01 0 5.92 0.75 8.71 2.26v5.32c-3.21-1.94-6.05-2.9-8.53-2.9-1.51 0-2.69 0.29-3.54 0.88-0.85 0.58-1.28 1.36-1.28 2.34 0 1.17 0.79 2.25 2.37 3.24 0.44 0.29 2.15 1.12 5.12 2.48 2.54 1.2 4.38 2.53 5.5 3.99s1.68 3.22 1.68 5.28c0 2.66-0.96 4.81-2.87 6.44s-4.39 2.45-7.44 2.45c-1.98 0-3.68-0.22-5.11-0.65s-3.03-1.19-4.8-2.25v-5.9c3.31 2.75 6.43 4.12 9.35 4.12 1.46 0 2.64-0.32 3.55-0.95 0.9-0.63 1.35-1.48 1.35-2.53 0-1.43-0.78-2.6-2.35-3.5-1.3-0.71-2.98-1.56-5.03-2.55-2.44-1.11-4.26-2.4-5.46-3.88s-1.81-3.19-1.81-5.14c0-2.6 0.97-4.67 2.9-6.22 1.96-1.55 4.51-2.33 7.69-2.33z"/>
	<path d="m331.74 22.12v4.68h-14.03v8.13h13.43v4.68h-13.43v8.8h14.34v4.68h-20.33v-30.97h20.02z"/>
	<path d="m354.51 22.12l13.68 30.97h-6.32l-3.21-7.54h-13.77l-2.99 7.54h-6.27l12.77-30.97h6.11zm-7.8 18.89h10l-5.23-12.26-4.77 12.26z"/>
	<path d="m382.97 22.12c2.91 0 5.28 0.81 7.12 2.42s2.75 3.71 2.75 6.29c0 1.76-0.46 3.29-1.36 4.6-0.91 1.31-2.26 2.34-4.05 3.09 0.99 0.53 1.87 1.26 2.64 2.17s1.72 2.46 2.86 4.63c1.89 3.75 3.3 6.34 4.21 7.76h-6.67c-0.46-0.68-1.08-1.77-1.86-3.26-1.71-3.3-2.97-5.52-3.77-6.66-0.8-1.15-1.57-1.96-2.31-2.44s-1.59-0.72-2.55-0.72h-2.17v13.08h-5.98v-30.96h11.14zm-1.35 13.21c1.57 0 2.8-0.39 3.69-1.17s1.34-1.85 1.34-3.21c0-1.42-0.44-2.48-1.33-3.18s-2.15-1.05-3.79-1.05h-3.72v8.62h3.81z"/>
	<path d="m413.95 21.72c1.76 0 3.48 0.2 5.17 0.6 1.68 0.4 3.5 1.08 5.45 2.04v5.63c-1.91-1.09-3.67-1.88-5.29-2.37s-3.31-0.73-5.06-0.73c-2.2 0-4.19 0.45-5.96 1.36s-3.15 2.19-4.13 3.85-1.47 3.5-1.47 5.52c0 2.07 0.49 3.92 1.46 5.56 0.98 1.64 2.35 2.91 4.12 3.8s3.77 1.34 5.99 1.34c1.7 0 3.32-0.24 4.87-0.73s3.49-1.37 5.84-2.64v5.63c-2.01 1.05-3.86 1.8-5.54 2.24s-3.65 0.67-5.9 0.67c-3.27 0-6.18-0.65-8.76-1.95-2.57-1.3-4.59-3.17-6.06-5.62s-2.21-5.12-2.21-8.04c0-3.12 0.76-5.92 2.27-8.4s3.6-4.4 6.25-5.74 5.63-2.02 8.96-2.02z"/>
	<path d="M435.83,22.12v13.03h16.07V22.12h5.99v30.97h-5.99V40.01h-16.07v13.08h-5.98V22.12H435.83z"/>
	<path d="m483.31 22.12v26.29h15.03v4.68h-21.01v-30.97h5.98z"/>
	<path d="m519.95 22.12l13.68 30.97h-6.32l-3.21-7.54h-13.77l-2.99 7.54h-6.27l12.77-30.97h6.11zm-7.8 18.89h10l-5.23-12.26-4.77 12.26z"/>
	<path d="m548.61 22.12c2.84 0 5.15 0.74 6.94 2.22s2.68 3.33 2.68 5.54c0 1.42-0.37 2.67-1.12 3.75s-1.83 1.94-3.25 2.57v0.27c2.16 0.49 3.84 1.45 5.04 2.89s1.81 3.13 1.81 5.06c0 1.71-0.44 3.25-1.32 4.6s-2.1 2.37-3.66 3.05-3.4 1.02-5.51 1.02h-12.97v-30.97h11.36zm-1.59 12.86c1.58 0 2.83-0.38 3.75-1.13s1.37-1.8 1.37-3.15c0-1.2-0.42-2.15-1.26-2.85s-1.95-1.05-3.32-1.05h-4.3v8.18h3.76zm1.39 13.43c2.02 0 3.55-0.38 4.59-1.14s1.55-1.88 1.55-3.36c0-1.32-0.51-2.35-1.54-3.11s-2.41-1.14-4.13-1.14h-5.63v8.76h5.16z"/>
	<path d="m581.05 21.72c3.21 0 6.09 0.66 8.66 1.98 2.56 1.32 4.61 3.23 6.13 5.72s2.28 5.22 2.28 8.19c0 2.9-0.74 5.58-2.23 8.06-1.49 2.47-3.52 4.4-6.12 5.76-2.59 1.37-5.52 2.05-8.77 2.05-3.21 0-6.12-0.69-8.74-2.08s-4.67-3.3-6.13-5.73-2.2-5.12-2.2-8.06c0-2.84 0.73-5.5 2.2-8 1.46-2.5 3.48-4.44 6.05-5.82s5.53-2.07 8.87-2.07zm-10.93 15.9c0 2.05 0.47 3.9 1.4 5.54s2.23 2.91 3.89 3.81 3.54 1.35 5.64 1.35c3.18 0 5.79-1 7.83-2.99s3.07-4.57 3.07-7.71c0-2.05-0.46-3.91-1.38-5.55-0.92-1.65-2.22-2.92-3.9-3.82s-3.57-1.35-5.66-1.35-3.99 0.45-5.66 1.36c-1.68 0.91-2.97 2.18-3.87 3.81-0.91 1.63-1.36 3.48-1.36 5.55z"/>
	<path d="m614.06 22.12c2.91 0 5.28 0.81 7.12 2.42s2.75 3.71 2.75 6.29c0 1.76-0.46 3.29-1.36 4.6-0.91 1.31-2.26 2.34-4.05 3.09 0.99 0.53 1.87 1.26 2.64 2.17s1.72 2.46 2.86 4.63c1.89 3.75 3.3 6.34 4.21 7.76h-6.67c-0.46-0.68-1.08-1.77-1.86-3.26-1.71-3.3-2.97-5.52-3.77-6.66-0.8-1.15-1.57-1.96-2.31-2.44s-1.59-0.72-2.55-0.72h-2.17v13.08h-5.98v-30.96h11.14zm-1.35 13.21c1.57 0 2.8-0.39 3.69-1.17s1.34-1.85 1.34-3.21c0-1.42-0.44-2.48-1.33-3.18s-2.15-1.05-3.79-1.05h-3.72v8.62h3.81z"/>
	<path d="m649.07 22.12l13.68 30.97h-6.32l-3.21-7.54h-13.77l-2.99 7.54h-6.27l12.77-30.97h6.11zm-7.81 18.89h10l-5.23-12.26-4.77 12.26z"/>
	<path d="M684.71,22.12v4.68h-10.99v26.29h-5.99V26.8h-10.99v-4.68H684.71z"/>
	<path d="m703.31 21.72c3.21 0 6.09 0.66 8.66 1.98 2.56 1.32 4.61 3.23 6.13 5.72s2.28 5.22 2.28 8.19c0 2.9-0.74 5.58-2.23 8.06-1.49 2.47-3.52 4.4-6.12 5.76-2.59 1.37-5.52 2.05-8.77 2.05-3.21 0-6.12-0.69-8.74-2.08s-4.67-3.3-6.13-5.73-2.2-5.12-2.2-8.06c0-2.84 0.73-5.5 2.2-8 1.46-2.5 3.48-4.44 6.05-5.82 2.58-1.38 5.53-2.07 8.87-2.07zm-10.93 15.9c0 2.05 0.47 3.9 1.4 5.54s2.23 2.91 3.89 3.81 3.54 1.35 5.64 1.35c3.18 0 5.79-1 7.83-2.99s3.07-4.57 3.07-7.71c0-2.05-0.46-3.91-1.38-5.55-0.92-1.65-2.22-2.92-3.9-3.82s-3.57-1.35-5.66-1.35-3.99 0.45-5.66 1.36c-1.68 0.91-2.97 2.18-3.87 3.81-0.91 1.63-1.36 3.48-1.36 5.55z"/>
	<path d="m736.46 22.12c2.91 0 5.28 0.81 7.12 2.42s2.75 3.71 2.75 6.29c0 1.76-0.46 3.29-1.36 4.6-0.91 1.31-2.26 2.34-4.05 3.09 0.99 0.53 1.87 1.26 2.64 2.17s1.72 2.46 2.86 4.63c1.89 3.75 3.3 6.34 4.21 7.76h-6.67c-0.46-0.68-1.08-1.77-1.86-3.26-1.71-3.3-2.97-5.52-3.77-6.66-0.8-1.15-1.57-1.96-2.31-2.44s-1.59-0.72-2.55-0.72h-2.17v13.08h-5.98v-30.96h11.14zm-1.35 13.21c1.57 0 2.8-0.39 3.69-1.17s1.34-1.85 1.34-3.21c0-1.42-0.44-2.48-1.33-3.18s-2.15-1.05-3.79-1.05h-3.72v8.62h3.81z"/>
	<path d="m754.58 22.12l7.49 10.35 7.58-10.35h7.12l-11.7 15.63v15.34h-5.99v-15.38l-11.77-15.58h7.27z"/>
	<path d="m249.29 76.2c3.21 0 6.09 0.66 8.66 1.98 2.56 1.32 4.61 3.23 6.13 5.72s2.28 5.22 2.28 8.19c0 2.9-0.74 5.58-2.23 8.06s-3.52 4.4-6.12 5.76c-2.59 1.37-5.52 2.05-8.77 2.05-3.21 0-6.12-0.7-8.74-2.08-2.62-1.39-4.67-3.3-6.13-5.73s-2.2-5.12-2.2-8.06c0-2.84 0.73-5.5 2.2-8 1.46-2.5 3.48-4.44 6.05-5.82s5.53-2.07 8.87-2.07zm-10.93 15.89c0 2.05 0.47 3.9 1.4 5.54s2.23 2.91 3.89 3.81 3.54 1.35 5.64 1.35c3.18 0 5.79-1 7.83-2.99 2.05-2 3.07-4.57 3.07-7.71 0-2.05-0.46-3.91-1.38-5.55-0.92-1.65-2.22-2.92-3.9-3.82s-3.57-1.35-5.66-1.35-3.99 0.46-5.66 1.36c-1.68 0.91-2.97 2.18-3.87 3.81s-1.36 3.48-1.36 5.55z"/>
	<path d="M290.85,76.6v4.68h-12.9v8h12.9V94h-12.9v13.57h-5.98V76.6H290.85z"/>
	<path d="M328.93,76.6v4.68H314.9v8.13h13.43v4.68H314.9v8.8h14.34v4.68h-20.33V76.6H328.93z"/>
	<path d="m340.81 76.6v26.29h15.03v4.68h-21.01v-30.97h5.98z"/>
	<path d="M379.96,76.6v4.68h-14.03v8.13h13.43v4.68h-13.43v8.8h14.34v4.68h-20.33V76.6H379.96z"/>
	<path d="m402.1 76.2c1.76 0 3.48 0.2 5.17 0.6 1.68 0.4 3.5 1.08 5.45 2.04v5.63c-1.91-1.09-3.67-1.88-5.29-2.37s-3.31-0.73-5.06-0.73c-2.2 0-4.19 0.46-5.96 1.36-1.77 0.91-3.15 2.19-4.13 3.85s-1.47 3.5-1.47 5.52c0 2.07 0.49 3.92 1.46 5.56 0.98 1.64 2.35 2.91 4.12 3.8s3.77 1.34 5.99 1.34c1.7 0 3.32-0.24 4.87-0.73 1.54-0.49 3.49-1.37 5.84-2.64v5.63c-2.01 1.05-3.86 1.8-5.54 2.24s-3.65 0.67-5.9 0.67c-3.27 0-6.18-0.65-8.76-1.95-2.57-1.3-4.59-3.17-6.06-5.62s-2.21-5.12-2.21-8.04c0-3.12 0.76-5.92 2.27-8.4s3.6-4.4 6.25-5.74c2.65-1.35 5.64-2.02 8.96-2.02z"/>
	<path d="M444.46,76.6v4.68h-10.99v26.29h-5.99V81.28h-10.99V76.6H444.46z"/>
	<path d="m460.15 76.6c2.91 0 5.28 0.81 7.12 2.42 1.83 1.61 2.75 3.71 2.75 6.3 0 1.76-0.46 3.29-1.36 4.6-0.91 1.31-2.26 2.34-4.05 3.09 0.99 0.53 1.87 1.26 2.64 2.17s1.72 2.46 2.86 4.63c1.89 3.75 3.3 6.34 4.21 7.76h-6.67c-0.46-0.68-1.08-1.77-1.86-3.26-1.71-3.29-2.97-5.52-3.77-6.66s-1.57-1.96-2.31-2.44-1.59-0.72-2.55-0.72h-2.17v13.08h-5.99v-30.97h11.15zm-1.35 13.21c1.57 0 2.8-0.39 3.69-1.17s1.34-1.85 1.34-3.21c0-1.42-0.44-2.48-1.33-3.18s-2.15-1.05-3.79-1.05h-3.72v8.62h3.81z"/>
	<path d="m491.84 76.2c3.21 0 6.09 0.66 8.66 1.98 2.56 1.32 4.61 3.23 6.13 5.72s2.28 5.22 2.28 8.19c0 2.9-0.74 5.58-2.23 8.06s-3.52 4.4-6.12 5.76c-2.59 1.37-5.52 2.05-8.77 2.05-3.21 0-6.12-0.7-8.74-2.08-2.62-1.39-4.67-3.3-6.13-5.73s-2.2-5.12-2.2-8.06c0-2.84 0.73-5.5 2.2-8 1.46-2.5 3.48-4.44 6.05-5.82s5.53-2.07 8.87-2.07zm-10.92 15.89c0 2.05 0.47 3.9 1.4 5.54s2.23 2.91 3.89 3.81 3.54 1.35 5.64 1.35c3.18 0 5.79-1 7.83-2.99 2.05-2 3.07-4.57 3.07-7.71 0-2.05-0.46-3.91-1.38-5.55-0.92-1.65-2.22-2.92-3.9-3.82s-3.57-1.35-5.66-1.35-3.99 0.46-5.66 1.36c-1.68 0.91-2.97 2.18-3.87 3.81s-1.36 3.48-1.36 5.55z"/>
	<path d="M519.77,76.6l18.4,21.61V76.6h5.85v30.97h-5.14L520.37,85.6v21.97h-5.85V76.6H519.77z"/>
	<path d="m555.99 76.6v30.97h-5.98v-30.97h5.98z"/>
	<path d="m579.2 76.2c1.76 0 3.48 0.2 5.17 0.6 1.68 0.4 3.5 1.08 5.45 2.04v5.63c-1.91-1.09-3.67-1.88-5.29-2.37s-3.31-0.73-5.06-0.73c-2.2 0-4.19 0.46-5.96 1.36-1.77 0.91-3.15 2.19-4.13 3.85s-1.47 3.5-1.47 5.52c0 2.07 0.49 3.92 1.46 5.56 0.98 1.64 2.35 2.91 4.12 3.8s3.77 1.34 5.99 1.34c1.7 0 3.32-0.24 4.87-0.73 1.54-0.49 3.49-1.37 5.84-2.64v5.63c-2.01 1.05-3.86 1.8-5.54 2.24s-3.65 0.67-5.9 0.67c-3.27 0-6.18-0.65-8.76-1.95-2.57-1.3-4.59-3.17-6.06-5.62s-2.21-5.12-2.21-8.04c0-3.12 0.76-5.92 2.27-8.4s3.6-4.4 6.25-5.74c2.65-1.35 5.64-2.02 8.96-2.02z"/>
	<path d="m604.85 76.2c3.01 0 5.92 0.75 8.71 2.26v5.32c-3.21-1.94-6.05-2.9-8.53-2.9-1.51 0-2.69 0.29-3.54 0.88-0.85 0.58-1.28 1.36-1.28 2.34 0 1.17 0.79 2.25 2.37 3.24 0.44 0.3 2.15 1.12 5.12 2.48 2.54 1.2 4.38 2.53 5.5 3.99s1.68 3.22 1.68 5.28c0 2.66-0.96 4.81-2.87 6.44s-4.39 2.45-7.44 2.45c-1.98 0-3.68-0.22-5.11-0.65s-3.03-1.19-4.8-2.25v-5.9c3.31 2.75 6.43 4.12 9.35 4.12 1.46 0 2.64-0.32 3.55-0.95 0.9-0.63 1.35-1.48 1.35-2.53 0-1.43-0.78-2.6-2.35-3.5-1.3-0.71-2.98-1.56-5.03-2.55-2.44-1.11-4.26-2.4-5.46-3.88s-1.81-3.19-1.81-5.14c0-2.6 0.97-4.67 2.9-6.22 1.95-1.56 4.51-2.33 7.69-2.33z"/>
	<path d="m649.12 76.38l14.32 31.19h-2.51l-4.9-10.71h-15.14l-4.89 10.71h-2.51l14.31-31.19h1.32zm6 18.48l-6.67-14.59-6.65 14.59h13.32z"/>
	<path d="m686.46 76.6v2h-11.62v28.97h-2.42v-28.98h-11.62v-2h25.66z"/>
	<path d="M720.19,90.98l11.76-14.38h2.42v30.97h-2.42V80.1l-11.78,14.47L708.35,80.1v27.46h-2.39V76.6h2.4L720.19,90.98z"/>
	<path d="m745.43 76.6v30.97h-2.39v-30.97h2.39z"/>
	<path d="m776.34 76.6v2h-11.62v28.97h-2.42v-28.98h-11.6v-2h25.64z"/>
</svg>
